# 3ds Max Wavefront OBJ Exporter v0.97b - (c)2007 guruware
# File Created: 09.08.2017 14:50:03

mtllib 2lines_T_RIGHT.mtl

#
# object Plane001
#

v  31.7305 0.0000 -22.5313
v  24.9314 0.0000 -29.3304
v  24.9314 0.0000 -29.9249
v  4.1851 0.0000 -29.9249
v  4.1851 0.0000 -29.3304
v  4.1851 0.3041 -29.9248
v  4.1851 0.3041 -29.3304
v  -2.6140 0.0000 -29.9248
v  -2.6140 0.0000 -29.3304
v  -2.6140 0.3041 -29.3304
v  -2.6140 0.3041 -29.9248
v  4.1851 0.0000 5.0152
v  4.1851 0.3041 5.0152
v  4.1851 0.3041 27.0806
v  4.1851 0.0000 27.0806
v  -2.6140 0.3041 5.0152
v  -2.6140 0.0000 5.0152
v  -2.6140 0.0000 27.0806
v  -2.6140 0.3041 27.0806
v  29.8850 0.0000 13.8900
v  26.4418 0.0000 20.6563
v  25.1369 0.0000 27.0645
v  29.9708 0.0000 -22.7630
v  31.7305 0.3041 -22.5313
v  29.9708 0.3041 -22.7630
v  28.3309 0.0000 -23.4422
v  28.3309 0.3041 -23.4422
v  26.9228 0.0000 -24.5227
v  26.9228 0.3041 -24.5227
v  25.8423 0.0000 -25.9309
v  25.8423 0.3041 -25.9309
v  25.1630 0.0000 -27.5707
v  25.1630 0.3041 -27.5707
v  24.9314 0.3041 -29.3304
v  24.9314 0.3041 -29.9248
v  31.7305 0.0000 -29.9248
v  31.7305 0.3041 -29.9248
v  31.4683 0.0000 -8.2235
v  4.1851 0.3041 -13.0827
v  -2.6140 0.3041 -13.0827
v  37.9927 0.0000 -25.9984
v  38.2869 0.0000 -26.5153
v  34.5680 0.3041 7.4075
v  40.4769 0.3041 10.7709
v  56.3177 0.3041 -16.2515
v  62.2266 0.3041 -12.8881
v  40.4769 0.0000 10.7709
v  62.2266 0.0000 -12.8881
v  36.9208 0.0000 -24.5837
v  37.9927 0.3041 -25.9984
v  36.9208 0.3041 -24.5837
v  35.5193 0.0000 -23.4945
v  35.5193 0.3041 -23.4945
v  33.8837 0.0000 -22.8053
v  33.8837 0.3041 -22.8053
v  31.7305 0.3041 -29.3304
v  38.2867 0.3041 -26.5150
v  32.3778 0.3041 -29.8784
v  31.7305 0.0000 -29.3304
v  32.3778 0.0000 -29.8784
v  34.5867 -0.0168 7.3958
v  56.3179 0.0000 -16.2518
v  29.8960 0.3041 13.8885
v  35.8049 0.3041 17.2519
v  35.8049 0.0000 17.2519
v  26.4446 0.3041 20.6562
v  32.9819 0.3041 22.5248
v  32.9819 0.0000 22.5248
v  25.1369 0.3041 27.0645
v  31.9318 0.3041 27.3025
v  31.9318 0.0000 27.3025
v  54.9041 0.0000 -14.7139
v  54.9040 0.3041 -14.7137
v  60.8129 0.3041 -11.3503
v  60.8129 0.0000 -11.3503
v  4.1851 0.3041 25.2617
v  4.1851 0.0000 25.2887
v  -2.6140 0.0000 25.1733
v  -2.6140 0.3041 25.1463
v  25.4251 0.0000 25.6493
v  25.4312 0.3041 25.6223
v  32.2756 0.3041 25.7385
v  32.2696 0.0000 25.7654
v  14.6741 0.0000 -28.4506
v  14.8051 0.0000 25.4690
# 85 vertices

vn 0.0000 1.0000 -0.0000
vn 1.0000 0.0000 -0.0000
vn -1.0000 0.0000 -0.0000
vn -0.2588 0.0000 0.9659
vn -0.0022 0.0000 1.0000
vn -0.5000 0.0000 0.8660
vn -0.7071 0.0000 0.7071
vn -0.8660 0.0000 0.5000
vn -0.9659 0.0000 0.2588
vn -0.9979 0.0000 0.0654
vn -0.7363 0.0001 -0.6767
vn -0.7362 0.0002 -0.6768
vn -0.7363 0.0002 -0.6767
vn 0.7362 0.0000 0.6768
vn 0.7114 0.0000 0.7028
vn 0.8349 0.0000 0.5505
vn 0.5053 0.0000 0.8629
vn 0.2597 0.0000 0.9657
vn 0.8691 0.0000 0.4947
vn -0.6461 0.0000 -0.7632
vn -0.7727 -0.0218 -0.6344
vn -0.8540 0.0276 -0.5196
vn -0.8528 0.0280 -0.5215
vn -0.7758 -0.0215 -0.6306
vn 0.7751 0.0000 0.6319
vn 0.8483 0.0000 0.5296
vn -0.9440 0.0087 -0.3298
vn -0.9438 0.0086 -0.3304
vn 0.9380 0.0000 0.3466
vn -0.9798 0.0019 -0.1997
vn -0.9798 0.0021 -0.1997
vn 0.9767 0.0000 0.2147
vn 0.0029 1.0000 0.0005
vn 0.0001 1.0000 0.0002
vn 0.0002 1.0000 0.0003
vn -0.9799 0.0000 -0.1995
vn -0.9799 0.0003 -0.1996
vn 0.0007 1.0000 -0.0000
# 38 vertex normals

vt 0.0110 0.9896 0.0000
vt 0.3749 0.9896 0.0000
vt 0.3749 1.0000 0.0000
vt 0.0110 1.0000 0.0000
vt 0.4851 0.0010 0.0000
vt 0.4996 0.0010 0.0000
vt 0.4996 0.0113 0.0000
vt 0.4851 0.0113 0.0000
vt 0.6250 0.9987 0.0000
vt 0.5008 0.9987 0.0000
vt 0.5008 0.9882 0.0000
vt 0.6250 0.9882 0.0000
vt 0.4851 0.6118 0.0000
vt 0.4996 0.2954 0.0000
vt 0.4996 0.9637 0.0000
vt 0.4996 0.6118 0.0000
vt 0.4851 0.9642 0.0000
vt 0.5007 2.5518 0.0000
vt 0.5007 1.8171 0.0000
vt 0.6248 1.8171 0.0000
vt 0.6248 2.5518 0.0000
vt 0.5007 0.9987 0.0000
vt 0.6248 0.9987 0.0000
vt 0.5007 0.0883 0.0000
vt 0.6248 0.0831 0.0000
vt 0.4852 0.6637 0.0000
vt 0.4994 0.6637 0.0000
vt 0.4994 0.7482 0.0000
vt 0.4852 0.7482 0.0000
vt 0.4852 0.5849 0.0000
vt 0.4994 0.5849 0.0000
vt 0.4852 0.5173 0.0000
vt 0.4994 0.5173 0.0000
vt 0.4855 0.9298 0.0000
vt 0.4998 0.9298 0.0000
vt 0.4998 0.9975 0.0000
vt 0.4855 0.9975 0.0000
vt 0.4855 0.8511 0.0000
vt 0.4998 0.8511 0.0000
vt 0.4855 0.7666 0.0000
vt 0.4998 0.7666 0.0000
vt 0.7479 0.0221 0.0000
vt 0.7437 0.0810 0.0000
vt 0.6259 0.0221 0.0000
vt 0.7315 0.1358 0.0000
vt 0.7121 0.1829 0.0000
vt 0.6869 0.2191 0.0000
vt 0.6259 0.2495 0.0000
vt 0.6574 0.2418 0.0000
vt 0.4998 0.7380 0.0000
vt 0.4855 0.7380 0.0000
vt 0.5000 1.0000 0.0000
vt 0.5000 0.0000 0.0000
vt 0.7479 0.0023 0.0000
vt 0.6259 0.0023 0.0000
vt 0.1747 0.3732 0.0000
vt 0.1747 0.0033 0.0000
vt 0.0025 0.0000 0.0000
vt 0.0047 0.9839 0.0000
vt 0.1747 1.0000 0.0000
vt 0.1950 0.9741 0.0000
vt 0.3790 0.9587 0.0000
vt 0.1973 0.0283 0.0000
vt 0.0110 0.0314 0.0000
vt 0.3785 0.0003 0.0000
vt 0.3836 0.0251 0.0000
vt 0.0110 0.0000 0.0000
vt 0.4996 0.9657 0.0000
vt 0.4851 0.9662 0.0000
vt 0.4992 0.0406 0.0000
vt 0.4992 0.0068 0.0000
vt 0.4851 0.0068 0.0000
vt 0.4851 0.0406 0.0000
vt 0.6247 0.5328 0.0000
vt 0.6247 0.4699 0.0000
vt 0.5006 0.4699 0.0000
vt 0.5006 0.5328 0.0000
vt 0.4851 0.1146 0.0000
vt 0.4851 0.0808 0.0000
vt 0.4992 0.0808 0.0000
vt 0.4992 0.1146 0.0000
vt 0.4854 0.9047 0.0000
vt 0.4996 0.9047 0.0000
vt 0.4996 0.9726 0.0000
vt 0.4854 0.9726 0.0000
vt 0.4852 0.9301 0.0000
vt 0.4994 0.9301 0.0000
vt 0.4994 0.9975 0.0000
vt 0.4852 0.9975 0.0000
vt 0.4852 0.8516 0.0000
vt 0.4994 0.8516 0.0000
vt 0.7511 0.0179 0.0000
vt 0.7423 0.0899 0.0000
vt 0.6437 0.0161 0.0000
vt 0.7280 0.1445 0.0000
vt 0.6834 0.2266 0.0000
vt 0.7079 0.1911 0.0000
vt 0.4854 0.9974 0.0000
vt 0.4996 0.9975 0.0000
vt 0.6337 0.0376 0.0000
vt 0.6746 0.2363 0.0000
vt 0.4843 0.5269 0.0000
vt 0.4851 0.6698 0.0000
vt 0.4992 0.6698 0.0000
vt 0.4992 0.5272 0.0000
vt 0.6247 -0.3705 0.0000
vt 0.6247 -0.5958 0.0000
vt 0.5006 -0.5958 0.0000
vt 0.5006 -0.3705 0.0000
vt 0.4992 0.6012 0.0000
vt 0.4992 0.7437 0.0000
vt 0.4851 0.7437 0.0000
vt 0.4851 0.6012 0.0000
vt 0.4851 0.8186 0.0000
vt 0.4992 0.8186 0.0000
vt 0.6247 -0.7824 0.0000
vt 0.5006 -0.7824 0.0000
vt 0.4992 0.8597 0.0000
vt 0.4851 0.8597 0.0000
vt 0.4851 0.9284 0.0000
vt 0.4992 0.9278 0.0000
vt 0.6247 -0.9135 0.0000
vt 0.5006 -0.9135 0.0000
vt 0.4992 0.9304 0.0000
vt 0.4851 0.9310 0.0000
vt 0.1555 0.0436 0.0000
vt 0.4544 0.7223 0.0000
vt 0.1565 0.4954 0.0000
vt 0.1743 0.9183 0.0000
vt 0.1562 0.9356 0.0000
vt 0.2428 0.9485 0.0000
vt 0.2215 0.9257 0.0000
vt 0.4752 0.7696 0.0000
vt 0.2836 1.0412 0.0000
vt 0.2788 1.0256 0.0000
vt 0.2624 0.9826 0.0000
vt 0.1949 0.9143 0.0000
vt 0.4851 0.9975 0.0000
vt 0.6248 0.0009 0.0000
vt 0.5007 0.0009 0.0000
vt 0.4851 0.9596 0.0000
vt 0.4992 0.9596 0.0000
vt 0.6247 -0.9724 0.0000
vt 0.5006 -0.9724 0.0000
vt 0.4992 0.9648 0.0000
vt 0.4851 0.9648 0.0000
vt 0.0248 -0.3571 0.0000
vt 0.1324 1.0044 0.0000
vt 0.1283 1.0513 0.0000
vt 0.0003 -0.5048 0.0000
vt 0.0829 -0.1538 0.0000
vt 0.1420 0.9650 0.0000
vt 0.0028 -0.0023 0.0000
vt 0.1741 -0.0056 0.0000
vt 0.1699 0.9781 0.0000
vt 0.0007 0.9944 0.0000
# 156 texture coords

g Plane001
usemtl T_crossing_BIG
s 1
f 5/1/1 2/2/1 3/3/1 4/4/1 
s 2
f 4/5/2 6/6/2 7/7/2 5/8/2 
s 1
f 11/6/3 8/5/3 9/8/3 10/7/3 
s 4
f 6/9/1 11/10/1 10/11/1 7/12/1 
s 1
f 9/8/3 17/13/3 40/14/3 10/7/3 
f 17/13/3 79/15/3 16/16/3 40/14/3 
f 17/13/3 78/17/3 79/15/3 
s 4
f 10/18/1 40/19/1 39/20/1 7/21/1 
f 39/20/1 40/19/1 16/22/1 13/23/1 
f 13/23/1 16/22/1 79/24/1 76/25/1 
s 2
f 25/26/4 23/27/4 1/28/5 24/29/5 
f 27/30/6 26/31/6 23/27/4 25/26/4 
f 29/32/7 28/33/7 26/31/6 27/30/6 
f 31/34/8 30/35/8 28/36/7 29/37/7 
f 33/38/9 32/39/9 30/35/8 31/34/8 
f 34/40/10 2/41/10 32/39/9 33/38/9 
s 1
f 34/42/1 33/43/1 56/44/1 
f 33/43/1 31/45/1 29/46/1 
f 29/46/1 27/47/1 56/44/1 
f 24/48/1 56/44/1 25/49/1 
s 2
f 3/50/3 2/41/10 34/40/10 35/51/3 
f 37/52/2 56/52/2 59/53/2 36/53/2 
s 1
f 35/54/1 34/42/1 56/44/1 37/55/1 
f 12/56/1 77/57/1 85/58/1 84/59/1 
f 12/56/1 84/59/1 5/60/1 
f 84/61/1 32/62/1 2/2/1 5/1/1 
f 85/63/1 77/64/1 22/65/1 80/66/1 
f 15/67/1 22/65/1 77/64/1 
s 2
f 76/68/2 77/69/2 12/13/2 13/16/2 
f 12/13/2 5/8/2 39/14/2 13/16/2 
f 39/14/2 5/8/2 7/7/2 
f 73/70/11 45/71/12 62/72/12 72/73/13 
s 1
f 45/74/1 73/75/1 74/76/1 46/77/1 
s 2
f 75/78/14 48/79/14 46/80/14 74/81/14 
f 51/82/15 49/83/15 41/84/16 50/85/16 
f 53/86/17 52/87/17 49/88/15 51/89/15 
f 55/90/18 54/91/18 52/87/17 53/86/17 
s 1
f 24/92/1 55/93/1 56/94/1 
f 55/93/1 53/95/1 56/94/1 
f 50/96/1 56/94/1 51/97/1 
s 2
f 57/98/19 50/85/16 41/84/16 42/99/19 
s 1
f 58/100/1 56/94/1 50/96/1 57/101/1 
s 4
f 60/53/20 59/53/20 56/52/20 58/52/20 
s 2
f 61/102/21 20/103/22 63/104/23 43/105/24 
s 1
f 43/106/1 63/107/1 64/108/1 44/109/1 
s 2
f 44/110/25 64/111/26 65/112/26 47/113/25 
f 20/103/22 21/114/27 66/115/28 63/104/23 
s 1
f 63/107/1 66/116/1 67/117/1 64/108/1 
s 2
f 64/111/26 67/118/29 68/119/29 65/112/26 
f 21/114/27 80/120/30 81/121/31 66/115/28 
s 1
f 66/116/1 81/122/1 82/123/1 67/117/1 
s 2
f 68/119/29 67/118/29 82/124/32 83/125/32 
f 43/105/24 73/70/11 72/73/13 61/102/21 
s 1
f 73/75/1 43/106/1 44/109/1 74/76/1 
s 2
f 47/113/25 75/78/14 74/81/14 44/110/25 
s 1
f 61/126/33 72/127/34 38/128/35 
f 38/128/35 23/129/1 26/130/1 
f 38/128/35 72/127/34 23/129/1 
s 2
f 54/91/18 55/90/18 24/29/5 1/28/5 
s 1
f 72/127/34 52/131/1 54/132/1 
f 72/127/34 62/133/1 42/134/1 41/135/1 
f 72/127/34 41/135/1 49/136/1 
f 72/127/34 49/136/1 52/131/1 
f 72/127/34 54/132/1 1/137/1 23/129/1 
s 2
f 14/99/2 15/138/2 77/69/2 76/68/2 
s 1
f 78/17/3 18/138/3 19/99/3 79/15/3 
s 4
f 14/139/1 76/25/1 79/24/1 19/140/1 
s 2
f 80/120/30 22/141/36 69/142/37 81/121/31 
s 1
f 81/122/1 69/143/1 70/144/1 82/123/1 
s 2
f 70/145/32 71/146/32 83/125/32 82/124/32 
s 1
f 21/147/1 30/148/1 32/149/1 80/150/1 
f 20/151/38 28/152/1 30/148/1 21/147/1 
f 20/151/38 61/126/33 38/128/35 28/152/1 
f 38/128/35 26/130/1 28/152/1 
f 85/153/1 80/154/1 32/155/1 84/156/1 
f 53/95/1 51/97/1 56/94/1 
f 27/47/1 25/49/1 56/44/1 
f 33/43/1 29/46/1 56/44/1 
# 57 polygons - 21 triangles

