# 3ds Max Wavefront OBJ Exporter v0.97b - (c)2007 guruware
# File Created: 09.08.2017 14:52:51

mtllib 4lines_ped.mtl

#
# object Plane001
#

v  -23.8340 0.3000 22.8557
v  -23.8340 0.3000 14.7876
v  -30.6346 0.3000 14.7876
v  -30.6346 0.3000 22.8557
v  -23.8340 0.3000 -0.8073
v  -30.6346 0.3000 -0.8073
v  -30.6346 0.3000 -8.0653
v  -23.8340 0.3000 -8.0653
v  17.5436 0.0000 22.8557
v  17.5436 0.0000 14.7876
v  -23.8340 0.0000 14.7876
v  -23.8340 0.0000 22.8557
v  24.3442 0.3000 22.8557
v  24.3442 0.3000 14.7876
v  17.5436 0.3000 14.7876
v  17.5436 0.3000 22.8557
v  24.3442 0.3000 -0.8073
v  17.5436 0.3000 -0.8073
v  17.5436 0.3000 -8.0653
v  24.3442 0.3000 -8.0653
v  17.5436 0.1518 13.8254
v  17.5436 0.1518 0.1549
v  -23.8340 0.1518 0.1549
v  -23.8340 0.1518 13.8254
v  17.5436 0.0000 -0.8073
v  17.5436 0.0000 -8.0653
v  -23.8340 0.0000 -8.0653
v  -23.8340 0.0000 -0.8073
v  -30.6346 0.0000 22.8557
v  -30.6346 0.0000 14.7876
v  -30.6346 0.0000 -0.8073
v  -30.6346 0.0000 -8.0653
v  24.3442 0.0000 -8.0653
v  24.3442 0.0000 -0.8073
v  24.3442 0.0000 14.7876
v  24.3442 0.0000 22.8557
# 36 vertices

vn 0.0000 1.0000 -0.0000
vn 0.0000 0.9989 0.0470
vn 0.0000 0.9989 -0.0470
vn 1.0000 0.0000 -0.0000
vn -1.0000 0.0000 -0.0000
# 5 vertex normals

vt 0.1241 0.2612 0.5000
vt 0.0005 0.2612 0.5000
vt 0.0005 0.0005 0.5000
vt 0.1241 0.0005 0.5000
vt 0.1241 0.7650 0.5000
vt 0.0005 0.7650 0.5000
vt 0.1241 0.9995 0.5000
vt 0.0005 0.9995 0.5000
vt 0.8759 0.2612 0.5000
vt 0.8759 0.0005 0.5000
vt 0.9995 0.2612 0.5000
vt 0.9995 0.0005 0.5000
vt 0.9995 0.7650 0.5000
vt 0.8759 0.7650 0.5000
vt 0.9995 0.9995 0.5000
vt 0.8759 0.9995 0.5000
vt 0.8759 0.7339 0.5000
vt 0.1241 0.7339 0.5000
vt 0.1241 0.2923 0.5000
vt 0.8759 0.2923 0.5000
vt 0.8828 0.0008 0.0000
vt 0.8828 0.2352 0.0000
vt 0.8760 0.2352 0.0000
vt 0.8760 0.0008 0.0000
vt 0.8770 0.2662 0.0000
vt 0.8770 0.7077 0.0000
vt 0.8828 0.7388 0.0000
vt 0.8760 0.7388 0.0000
vt 0.8828 0.9994 0.0000
vt 0.8760 0.9994 0.0000
# 30 texture coords

g Plane001
usemtl 4lines_pesh
s 1
f 2/1/1 3/2/1 4/3/1 1/4/1 
f 5/5/1 6/6/1 3/2/1 2/1/1 
f 6/6/1 5/5/1 8/7/1 7/8/1 
f 10/9/2 11/1/2 12/4/1 9/10/1 
f 14/11/1 15/9/1 16/10/1 13/12/1 
f 17/13/1 18/14/1 15/9/1 14/11/1 
f 18/14/1 17/13/1 20/15/1 19/16/1 
f 22/17/3 23/18/3 24/19/2 21/20/2 
f 26/16/1 27/7/1 28/5/3 25/14/3 
s off
f 8/21/4 5/22/4 28/23/4 27/24/4 
f 23/25/4 28/23/4 5/22/4 24/26/4 
f 24/26/4 5/22/4 2/27/4 11/28/4 
f 2/27/4 1/29/4 12/30/4 11/28/4 
f 4/29/5 3/27/5 30/28/5 29/30/5 
f 3/27/5 6/22/5 31/23/5 30/28/5 
f 6/22/5 7/21/5 32/24/5 31/23/5 
f 20/21/4 17/22/4 34/23/4 33/24/4 
f 17/22/4 14/27/4 35/28/4 34/23/4 
f 14/27/4 13/29/4 36/30/4 35/28/4 
f 16/29/5 15/27/5 10/28/5 9/30/5 
f 21/26/5 10/28/5 15/27/5 22/25/5 
f 22/25/5 15/27/5 18/22/5 25/23/5 
f 18/22/5 19/21/5 26/24/5 25/23/5 
s 1
f 21/20/2 24/19/2 11/1/2 10/9/2 
f 23/18/3 22/17/3 25/14/3 28/5/3 
# 25 polygons

