# 3ds Max Wavefront OBJ Exporter v0.97b - (c)2007 guruware
# File Created: 09.08.2017 14:52:08

mtllib 4lines_crossing.mtl

#
# object Plane001
#

v  27.1455 0.0000 -20.4786
v  27.1455 0.0000 20.9160
v  27.7402 0.0000 20.9160
v  27.7402 0.0000 -20.4786
v  20.3464 0.0000 -27.2777
v  20.3464 0.0000 -27.8722
v  -21.0364 0.0000 -27.8722
v  -21.0364 0.0000 -27.2777
v  -27.8355 0.0000 20.9160
v  -27.8355 0.0000 -20.4786
v  -28.4307 0.0000 -20.4786
v  -28.4307 0.0000 20.9160
v  -26.0758 0.0000 21.1476
v  -26.0758 0.0000 -20.7103
v  -27.8355 0.3041 -20.4786
v  -26.0758 0.3041 -20.7103
v  -24.4360 0.0000 -21.3895
v  -24.4360 0.3041 -21.3895
v  -23.0278 0.0000 -22.4700
v  -23.0278 0.3041 -22.4700
v  -21.9473 0.0000 -23.8782
v  -21.9473 0.3041 -23.8782
v  -21.2681 0.0000 -25.5180
v  -21.2681 0.3041 -25.5180
v  -21.0364 0.3041 -27.2777
v  -27.8355 0.3041 -27.2777
v  -28.4299 0.3041 -20.4786
v  -28.4299 0.3041 -27.2777
v  -27.8355 0.0000 -27.2777
v  -28.4299 0.0000 -27.2777
v  -21.0364 0.3041 -27.8721
v  -27.8355 0.0000 -27.8721
v  -27.8355 0.3041 -27.8721
v  -27.8355 0.3041 20.9160
v  -26.0758 0.3041 21.1476
v  -24.4360 0.0000 21.8269
v  -24.4360 0.3041 21.8269
v  -23.0278 0.0000 22.9074
v  -23.0278 0.3041 22.9074
v  -21.9473 0.0000 24.3155
v  -21.9473 0.3041 24.3155
v  -21.2681 0.0000 25.9554
v  -21.2681 0.3041 25.9554
v  -21.0364 0.0000 27.7151
v  -21.0364 0.3041 27.7151
v  -27.8355 0.3041 27.7151
v  -28.4299 0.3041 20.9160
v  -28.4299 0.3041 27.7151
v  -27.8355 0.0000 27.7151
v  -28.4299 0.0000 27.7151
v  -21.0364 0.3041 28.3095
v  -21.0364 0.0000 28.3095
v  -27.8355 0.0000 28.3095
v  -27.8355 0.3041 28.3095
v  27.1455 0.3041 20.9160
v  25.3858 0.0000 21.1476
v  25.3858 0.3041 21.1476
v  23.7459 0.0000 21.8269
v  23.7459 0.3041 21.8269
v  22.3378 0.0000 22.9074
v  22.3378 0.3041 22.9074
v  21.2573 0.0000 24.3155
v  21.2573 0.3041 24.3155
v  20.5780 0.0000 25.9554
v  20.5780 0.3041 25.9554
v  20.3464 0.0000 27.7151
v  20.3464 0.3041 27.7151
v  27.1455 0.3041 27.7151
v  27.7399 0.3041 20.9160
v  27.7399 0.3041 27.7151
v  27.1455 0.0000 27.7151
v  27.7399 0.0000 27.7151
v  20.3464 0.3041 28.3095
v  20.3464 0.0000 28.3095
v  27.1455 0.0000 28.3095
v  27.1455 0.3041 28.3095
v  25.3858 0.0000 -20.7103
v  27.1455 0.3041 -20.4786
v  25.3858 0.3041 -20.7103
v  23.7459 0.0000 -21.3895
v  23.7459 0.3041 -21.3895
v  22.3378 0.0000 -22.4700
v  22.3378 0.3041 -22.4700
v  21.2573 0.0000 -23.8782
v  21.2573 0.3041 -23.8782
v  20.5780 0.0000 -25.5180
v  20.5780 0.3041 -25.5180
v  20.3464 0.3041 -27.2777
v  27.1455 0.3041 -27.2777
v  27.7399 0.3041 -20.4786
v  27.7399 0.3041 -27.2777
v  27.1455 0.0000 -27.2777
v  27.7399 0.0000 -27.2777
v  20.3464 0.3041 -27.8721
v  27.1455 0.0000 -27.8721
v  27.1455 0.3041 -27.8721
v  25.3858 0.0000 21.1477
v  22.1206 0.0000 23.1905
# 98 vertices

vn 0.0000 1.0000 -0.0000
vn 0.1305 0.0000 0.9914
vn 0.2588 0.0000 0.9659
vn 0.5000 0.0000 0.8660
vn 0.7071 0.0000 0.7071
vn 0.8660 0.0000 0.5000
vn 0.9659 0.0000 0.2588
vn 0.9914 0.0000 0.1305
vn 0.0000 0.0000 1.0000
vn 0.0000 0.0000 -1.0000
vn 1.0000 0.0000 -0.0000
vn -1.0000 0.0000 -0.0000
vn 0.1305 0.0000 -0.9914
vn 0.2588 0.0000 -0.9659
vn 0.5000 0.0000 -0.8660
vn 0.7071 0.0000 -0.7071
vn 0.8660 0.0000 -0.5000
vn 0.9659 0.0000 -0.2588
vn 0.9914 0.0000 -0.1305
vn -0.1305 0.0000 -0.9914
vn -0.2588 0.0000 -0.9659
vn -0.5000 0.0000 -0.8660
vn -0.7071 0.0000 -0.7071
vn -0.8660 0.0000 -0.5000
vn -0.9659 0.0000 -0.2588
vn -0.9914 0.0000 -0.1305
vn -0.1305 0.0000 0.9914
vn -0.2588 0.0000 0.9659
vn -0.5000 0.0000 0.8660
vn -0.7071 0.0000 0.7071
vn -0.8660 0.0000 0.5000
vn -0.9659 0.0000 0.2588
vn -0.9914 0.0000 0.1305
# 33 vertex normals

vt 0.9459 0.2408 0.0000
vt 0.9547 0.2408 0.0000
vt 0.9547 0.8849 0.0000
vt 0.9459 0.8849 0.0000
vt 0.8458 1.0000 0.0000
vt 0.2366 1.0000 0.0000
vt 0.2366 0.9907 0.0000
vt 0.8458 0.9908 0.0000
vt 0.1365 0.8849 0.0000
vt 0.1278 0.8849 0.0000
vt 0.1278 0.2408 0.0000
vt 0.1365 0.2408 0.0000
vt 0.1624 0.8885 0.0000
vt 0.1624 0.2372 0.0000
vt 0.9978 0.0018 1.0000
vt 0.9978 0.0854 1.0000
vt 0.9697 0.0854 1.0000
vt 0.9697 0.0018 1.0000
vt 0.9978 0.1689 1.0000
vt 0.9697 0.1689 1.0000
vt 0.9978 0.2525 1.0000
vt 0.9697 0.2525 1.0000
vt 0.9978 0.3360 1.0000
vt 0.9697 0.3360 1.0000
vt 0.9978 0.4196 1.0000
vt 0.9697 0.4196 1.0000
vt 0.9978 0.5031 1.0000
vt 0.9697 0.5031 1.0000
vt 0.1815 0.1834 0.0000
vt 0.0200 0.0202 0.0000
vt 0.2406 0.0799 0.0000
vt 0.2178 0.1356 0.0000
vt 0.0791 0.2431 0.0000
vt 0.1342 0.2200 0.0000
vt 0.0200 0.2510 0.0000
vt 0.2484 0.0202 0.0000
vt 0.9976 0.2573 0.0000
vt 0.9695 0.2572 0.0000
vt 0.9697 0.2243 1.0000
vt 0.9978 0.2243 1.0000
vt 0.0200 0.0000 0.0000
vt 0.2484 0.0000 0.0000
vt 0.5000 1.0000 0.0000
vt 0.5000 0.0000 0.0000
vt 0.9697 0.4922 0.0000
vt 0.9977 0.4922 0.0000
vt 0.9978 0.5251 1.0000
vt 0.9697 0.5251 1.0000
vt 0.0000 0.2510 0.0000
vt 0.0000 0.0202 0.0000
vt 0.9976 0.1913 0.0000
vt 0.9695 0.1914 0.0000
vt 0.9697 0.5580 0.0000
vt 0.9978 0.5580 0.0000
vt 0.9977 0.2572 0.0000
vt 0.9696 0.2572 0.0000
vt 0.9978 0.4922 0.0000
vt 0.9977 0.1914 0.0000
vt 0.9696 0.1914 0.0000
vt 0.9977 0.5580 0.0000
vt 0.9200 0.2372 0.0000
vt 0.8959 0.2266 0.0000
vt 0.8751 0.2098 0.0000
vt 0.8719 0.2054 0.0000
vt 0.8592 0.1879 0.0000
vt 0.8492 0.1623 0.0000
vt 0.9200 0.8885 0.0000
vt 0.8959 0.8991 0.0000
vt 0.8751 0.9159 0.0000
vt 0.8592 0.9378 0.0000
vt 0.8492 0.9634 0.0000
vt 0.2332 0.9634 0.0000
vt 0.2232 0.9378 0.0000
vt 0.2073 0.9159 0.0000
vt 0.1866 0.8991 0.0000
vt 0.8458 0.1350 0.0000
vt 0.1866 0.2266 0.0000
vt 0.2073 0.2098 0.0000
vt 0.2232 0.1879 0.0000
vt 0.2332 0.1623 0.0000
vt 0.2366 0.1350 0.0000
vt 0.8458 0.1257 0.0000
vt 0.2366 0.1257 0.0000
# 83 texture coords

g Plane001
usemtl crossing
s 1
f 2/1/1 3/2/1 4/3/1 1/4/1 
f 6/5/1 7/6/1 8/7/1 5/8/1 
f 10/9/1 11/10/1 12/11/1 9/12/1 
f 14/13/1 10/9/1 9/12/1 13/14/1 
s 8
f 10/15/2 14/16/3 16/17/3 15/18/2 
f 14/16/3 17/19/4 18/20/4 16/17/3 
f 17/19/4 19/21/5 20/22/5 18/20/4 
f 19/21/5 21/23/6 22/24/6 20/22/5 
f 21/23/6 23/25/7 24/26/7 22/24/6 
f 23/25/7 8/27/8 25/28/8 24/26/7 
s 1
f 20/29/1 26/30/1 16/31/1 18/32/1 
f 24/33/1 26/30/1 20/29/1 22/34/1 
f 24/33/1 25/35/1 26/30/1 
f 15/36/1 16/31/1 26/30/1 
s off
f 10/37/9 15/38/9 27/39/9 11/40/9 
f 15/36/1 26/30/1 28/41/1 27/42/1 
f 26/43/10 29/44/10 30/44/10 28/43/10 
f 25/45/11 8/46/11 7/47/11 31/48/11 
f 29/44/12 26/43/12 33/43/12 32/44/12 
f 26/30/1 25/35/1 31/49/1 33/50/1 
s 8
f 9/15/13 34/18/13 35/17/14 13/16/14 
f 13/16/14 35/17/14 37/20/15 36/19/15 
f 36/19/15 37/20/15 39/22/16 38/21/16 
f 38/21/16 39/22/16 41/24/17 40/23/17 
f 40/23/17 41/24/17 43/26/18 42/25/18 
f 42/25/18 43/26/18 45/28/19 44/27/19 
s 1
f 39/29/1 46/30/1 45/35/1 43/33/1 
f 43/33/1 41/34/1 39/29/1 
f 35/31/1 46/30/1 39/29/1 37/32/1 
f 34/36/1 46/30/1 35/31/1 
s off
f 9/51/10 12/40/10 47/39/10 34/52/10 
f 34/36/1 47/42/1 48/41/1 46/30/1 
f 46/43/9 48/43/9 50/44/9 49/44/9 
f 45/53/11 51/48/11 52/47/11 44/54/11 
f 49/44/12 53/44/12 54/43/12 46/43/12 
f 46/30/1 54/50/1 51/49/1 45/35/1 
s 8
f 2/15/20 56/16/21 57/17/21 55/18/20 
f 56/16/21 58/19/22 59/20/22 57/17/21 
f 58/19/22 60/21/23 61/22/23 59/20/22 
f 60/21/23 62/23/24 63/24/24 61/22/23 
f 62/23/24 64/25/25 65/26/25 63/24/24 
f 64/25/25 66/27/26 67/28/26 65/26/25 
s 1
f 61/29/1 68/30/1 57/31/1 59/32/1 
f 65/33/1 68/30/1 61/29/1 63/34/1 
f 65/33/1 67/35/1 68/30/1 
f 55/36/1 57/31/1 68/30/1 
s off
f 2/55/10 55/56/10 69/39/10 3/40/10 
f 55/36/1 68/30/1 70/41/1 69/42/1 
f 68/43/9 71/44/9 72/44/9 70/43/9 
f 67/45/12 66/57/12 74/47/12 73/48/12 
f 71/44/11 68/43/11 76/43/11 75/44/11 
f 68/30/1 67/35/1 73/49/1 76/50/1 
s 8
f 1/15/27 78/18/27 79/17/28 77/16/28 
f 77/16/28 79/17/28 81/20/29 80/19/29 
f 80/19/29 81/20/29 83/22/30 82/21/30 
f 82/21/30 83/22/30 85/24/31 84/23/31 
f 84/23/31 85/24/31 87/26/32 86/25/32 
f 86/25/32 87/26/32 88/28/33 5/27/33 
s 1
f 83/29/1 89/30/1 88/35/1 87/33/1 
f 87/33/1 85/34/1 83/29/1 
f 79/31/1 89/30/1 83/29/1 81/32/1 
f 78/36/1 89/30/1 79/31/1 
s off
f 1/58/9 4/40/9 90/39/9 78/59/9 
f 78/36/1 90/42/1 91/41/1 89/30/1 
f 89/43/10 91/43/10 93/44/10 92/44/10 
f 88/53/12 94/48/12 6/47/12 5/60/12 
f 92/44/11 95/44/11 96/43/11 89/43/11 
f 89/30/1 96/50/1 94/49/1 88/35/1 
s 1
f 97/61/1 2/1/1 1/4/1 58/62/1 
f 60/63/1 58/62/1 1/4/1 98/64/1 
f 62/65/1 98/64/1 1/4/1 64/66/1 
f 64/66/1 1/4/1 77/67/1 13/14/1 
f 8/7/1 13/14/1 77/67/1 80/68/1 
f 8/7/1 80/68/1 82/69/1 84/70/1 
f 8/7/1 84/70/1 86/71/1 5/8/1 
f 13/14/1 8/7/1 23/72/1 21/73/1 
f 13/14/1 21/73/1 19/74/1 17/75/1 
f 17/75/1 14/13/1 13/14/1 
f 66/76/1 64/66/1 13/14/1 36/77/1 
f 66/76/1 36/77/1 38/78/1 40/79/1 
f 66/76/1 40/79/1 42/80/1 44/81/1 
f 74/82/1 66/76/1 44/81/1 52/83/1 
# 73 polygons - 9 triangles

