# 3ds Max Wavefront OBJ Exporter v0.97b - (c)2007 guruware
# File Created: 09.08.2017 14:53:39

mtllib 4to2_crossing.mtl

#
# object Plane001
#

v  27.2234 0.0000 -10.0824
v  27.2234 0.0000 10.6536
v  27.8181 0.0000 10.6536
v  27.8181 0.0000 -10.0824
v  20.4243 0.0000 -16.8815
v  20.4243 0.0000 -17.4760
v  -20.9585 0.0000 -17.4760
v  -20.9585 0.0000 -16.8815
v  -27.7576 0.0000 10.6536
v  -27.7576 0.0000 -10.0824
v  -28.3528 0.0000 -10.0824
v  -28.3528 0.0000 10.6536
v  -25.9979 0.0000 10.8852
v  -25.9979 0.0000 -10.3141
v  -27.7576 0.3041 -10.0824
v  -25.9979 0.3041 -10.3141
v  -24.3581 0.0000 -10.9933
v  -24.3581 0.3041 -10.9933
v  -22.9499 0.0000 -12.0738
v  -22.9499 0.3041 -12.0738
v  -21.8694 0.0000 -13.4820
v  -21.8694 0.3041 -13.4820
v  -21.1902 0.0000 -15.1218
v  -21.1902 0.3041 -15.1218
v  -20.9585 0.3041 -16.8815
v  -27.7576 0.3041 -16.8815
v  -28.3520 0.3041 -10.0824
v  -28.3520 0.3041 -16.8815
v  -27.7576 0.0000 -16.8815
v  -28.3520 0.0000 -16.8815
v  -20.9585 0.3041 -17.4759
v  -27.7576 0.0000 -17.4759
v  -27.7576 0.3041 -17.4759
v  -27.7576 0.3041 10.6536
v  -25.9979 0.3041 10.8852
v  -24.3581 0.0000 11.5645
v  -24.3581 0.3041 11.5645
v  -22.9499 0.0000 12.6450
v  -22.9499 0.3041 12.6450
v  -21.8694 0.0000 14.0531
v  -21.8694 0.3041 14.0531
v  -21.1902 0.0000 15.6930
v  -21.1902 0.3041 15.6930
v  -20.9585 0.0000 17.4527
v  -20.9585 0.3041 17.4527
v  -27.7576 0.3041 17.4527
v  -28.3520 0.3041 10.6536
v  -28.3520 0.3041 17.4527
v  -27.7576 0.0000 17.4527
v  -28.3520 0.0000 17.4527
v  -20.9585 0.3041 18.0471
v  -20.9585 0.0000 18.0471
v  -27.7576 0.0000 18.0471
v  -27.7576 0.3041 18.0471
v  27.2234 0.3041 10.6536
v  25.4637 0.0000 10.8852
v  25.4637 0.3041 10.8852
v  23.8238 0.0000 11.5645
v  23.8238 0.3041 11.5645
v  22.4157 0.0000 12.6450
v  22.4157 0.3041 12.6450
v  21.3352 0.0000 14.0531
v  21.3352 0.3041 14.0531
v  20.6559 0.0000 15.6930
v  20.6559 0.3041 15.6930
v  20.4243 0.0000 17.4527
v  20.4243 0.3041 17.4527
v  27.2234 0.3041 17.4527
v  27.8178 0.3041 10.6536
v  27.8178 0.3041 17.4527
v  27.2234 0.0000 17.4527
v  27.8178 0.0000 17.4527
v  20.4243 0.3041 18.0471
v  20.4243 0.0000 18.0471
v  27.2234 0.0000 18.0471
v  27.2234 0.3041 18.0471
v  25.4637 0.0000 -10.3141
v  27.2234 0.3041 -10.0824
v  25.4637 0.3041 -10.3141
v  23.8238 0.0000 -10.9933
v  23.8238 0.3041 -10.9933
v  22.4157 0.0000 -12.0738
v  22.4157 0.3041 -12.0738
v  21.3352 0.0000 -13.4820
v  21.3352 0.3041 -13.4820
v  20.6559 0.0000 -15.1218
v  20.6559 0.3041 -15.1218
v  20.4243 0.3041 -16.8815
v  27.2234 0.3041 -16.8815
v  27.8178 0.3041 -10.0824
v  27.8178 0.3041 -16.8815
v  27.2234 0.0000 -16.8815
v  27.8178 0.0000 -16.8815
v  20.4243 0.3041 -17.4759
v  27.2234 0.0000 -17.4759
v  27.2234 0.3041 -17.4759
v  25.4637 0.0000 10.8853
v  22.1985 0.0000 12.9281
# 98 vertices

vn 0.0000 1.0000 -0.0000
vn 0.1305 0.0000 0.9914
vn 0.2588 0.0000 0.9659
vn 0.5000 0.0000 0.8660
vn 0.7071 0.0000 0.7071
vn 0.8660 0.0000 0.5000
vn 0.9659 0.0000 0.2588
vn 0.9914 0.0000 0.1305
vn 0.0000 0.0000 1.0000
vn 0.0000 0.0000 -1.0000
vn 1.0000 0.0000 -0.0000
vn -1.0000 0.0000 -0.0000
vn 0.2588 0.0000 -0.9659
vn 0.1305 0.0000 -0.9914
vn 0.5000 0.0000 -0.8660
vn 0.7071 0.0000 -0.7071
vn 0.8660 0.0000 -0.5000
vn 0.9659 0.0000 -0.2588
vn 0.9914 0.0000 -0.1305
vn -0.1305 0.0000 -0.9914
vn -0.2588 0.0000 -0.9659
vn -0.5000 0.0000 -0.8660
vn -0.7071 0.0000 -0.7071
vn -0.8660 0.0000 -0.5000
vn -0.9659 0.0000 -0.2588
vn -0.9914 0.0000 -0.1305
vn -0.2588 0.0000 0.9659
vn -0.1305 0.0000 0.9914
vn -0.5000 0.0000 0.8660
vn -0.7071 0.0000 0.7071
vn -0.8660 0.0000 0.5000
vn -0.9659 0.0000 0.2588
vn -0.9914 0.0000 0.1305
# 33 vertex normals

vt 0.9546 0.8825 0.0000
vt 0.9546 0.5771 0.0000
vt 0.9629 0.5771 0.0000
vt 0.9629 0.8825 0.0000
vt 0.8600 0.9826 0.0000
vt 0.8600 0.9914 0.0000
vt 0.2842 0.9914 0.0000
vt 0.2842 0.9826 0.0000
vt 0.1896 0.5771 0.0000
vt 0.1896 0.8825 0.0000
vt 0.1813 0.8825 0.0000
vt 0.1813 0.5771 0.0000
vt 0.2141 0.5737 0.0000
vt 0.2141 0.8859 0.0000
vt 0.9697 0.0018 1.0000
vt 0.9978 0.0018 1.0000
vt 0.9978 0.0854 1.0000
vt 0.9697 0.0854 1.0000
vt 0.9978 0.1689 1.0000
vt 0.9697 0.1689 1.0000
vt 0.9978 0.2525 1.0000
vt 0.9697 0.2525 1.0000
vt 0.9978 0.3360 1.0000
vt 0.9697 0.3360 1.0000
vt 0.9978 0.4196 1.0000
vt 0.9697 0.4196 1.0000
vt 0.9978 0.5031 1.0000
vt 0.9697 0.5031 1.0000
vt 0.2406 0.0799 0.0000
vt 0.2178 0.1356 0.0000
vt 0.1815 0.1834 0.0000
vt 0.0200 0.0202 0.0000
vt 0.1342 0.2200 0.0000
vt 0.0791 0.2431 0.0000
vt 0.0200 0.2510 0.0000
vt 0.2484 0.0202 0.0000
vt 0.9978 0.2243 1.0000
vt 0.9976 0.2573 0.0000
vt 0.9695 0.2572 0.0000
vt 0.9697 0.2243 1.0000
vt 0.2484 0.0000 0.0000
vt 0.0200 0.0000 0.0000
vt 0.5000 1.0000 0.0000
vt 0.5000 0.0000 0.0000
vt 0.9697 0.5251 1.0000
vt 0.9697 0.4922 0.0000
vt 0.9977 0.4922 0.0000
vt 0.9978 0.5251 1.0000
vt 0.0000 0.0202 0.0000
vt 0.0000 0.2510 0.0000
vt 0.9695 0.1914 0.0000
vt 0.9976 0.1913 0.0000
vt 0.9978 0.5580 0.0000
vt 0.9697 0.5580 0.0000
vt 0.9977 0.2572 0.0000
vt 0.9696 0.2572 0.0000
vt 0.9978 0.4922 0.0000
vt 0.9696 0.1914 0.0000
vt 0.9977 0.1914 0.0000
vt 0.9977 0.5580 0.0000
vt 0.2716 0.5270 0.0000
vt 0.2810 0.5029 0.0000
vt 0.2842 0.4769 0.0000
vt 0.2565 0.9118 0.0000
vt 0.2369 0.8959 0.0000
vt 0.2810 0.9567 0.0000
vt 0.2716 0.9325 0.0000
vt 0.2369 0.5637 0.0000
vt 0.2565 0.5477 0.0000
vt 0.2842 0.4682 0.0000
vt 0.8600 0.4682 0.0000
vt 0.8600 0.4769 0.0000
vt 0.8633 0.5029 0.0000
vt 0.8727 0.5270 0.0000
vt 0.8847 0.5436 0.0000
vt 0.8877 0.5477 0.0000
vt 0.9073 0.5637 0.0000
vt 0.9301 0.5737 0.0000
vt 0.9301 0.8859 0.0000
vt 0.9073 0.8959 0.0000
vt 0.8877 0.9118 0.0000
vt 0.8727 0.9325 0.0000
vt 0.8633 0.9567 0.0000
# 83 texture coords

g Plane001
usemtl crossing
s 1
f 1/1/1 2/2/1 3/3/1 4/4/1 
f 5/5/1 6/6/1 7/7/1 8/8/1 
f 9/9/1 10/10/1 11/11/1 12/12/1 
f 13/13/1 14/14/1 10/10/1 9/9/1 
s 8
f 15/15/2 10/16/2 14/17/3 16/18/3 
f 16/18/3 14/17/3 17/19/4 18/20/4 
f 18/20/4 17/19/4 19/21/5 20/22/5 
f 20/22/5 19/21/5 21/23/6 22/24/6 
f 22/24/6 21/23/6 23/25/7 24/26/7 
f 24/26/7 23/25/7 8/27/8 25/28/8 
s 1
f 16/29/1 18/30/1 20/31/1 26/32/1 
f 20/31/1 22/33/1 24/34/1 26/32/1 
f 24/34/1 25/35/1 26/32/1 
f 15/36/1 16/29/1 26/32/1 
s off
f 11/37/9 10/38/9 15/39/9 27/40/9 
f 27/41/1 15/36/1 26/32/1 28/42/1 
f 28/43/10 26/43/10 29/44/10 30/44/10 
f 31/45/11 25/46/11 8/47/11 7/48/11 
f 32/44/12 29/44/12 26/43/12 33/43/12 
f 33/49/1 26/32/1 25/35/1 31/50/1 
s 8
f 13/17/13 9/16/14 34/15/14 35/18/13 
f 36/19/15 13/17/13 35/18/13 37/20/15 
f 38/21/16 36/19/15 37/20/15 39/22/16 
f 40/23/17 38/21/16 39/22/16 41/24/17 
f 42/25/18 40/23/17 41/24/17 43/26/18 
f 44/27/19 42/25/18 43/26/18 45/28/19 
s 1
f 45/35/1 43/34/1 39/31/1 46/32/1 
f 43/34/1 41/33/1 39/31/1 
f 39/31/1 37/30/1 35/29/1 46/32/1 
f 34/36/1 46/32/1 35/29/1 
s off
f 34/51/10 9/52/10 12/37/10 47/40/10 
f 46/32/1 34/36/1 47/41/1 48/42/1 
f 49/44/9 46/43/9 48/43/9 50/44/9 
f 44/53/11 45/54/11 51/45/11 52/48/11 
f 46/43/12 49/44/12 53/44/12 54/43/12 
f 45/35/1 46/32/1 54/49/1 51/50/1 
s 8
f 55/15/20 2/16/20 56/17/21 57/18/21 
f 57/18/21 56/17/21 58/19/22 59/20/22 
f 59/20/22 58/19/22 60/21/23 61/22/23 
f 61/22/23 60/21/23 62/23/24 63/24/24 
f 63/24/24 62/23/24 64/25/25 65/26/25 
f 65/26/25 64/25/25 66/27/26 67/28/26 
s 1
f 57/29/1 59/30/1 61/31/1 68/32/1 
f 61/31/1 63/33/1 65/34/1 68/32/1 
f 65/34/1 67/35/1 68/32/1 
f 55/36/1 57/29/1 68/32/1 
s off
f 3/37/10 2/55/10 55/56/10 69/40/10 
f 69/41/1 55/36/1 68/32/1 70/42/1 
f 70/43/9 68/43/9 71/44/9 72/44/9 
f 73/45/12 67/46/12 66/57/12 74/48/12 
f 75/44/11 71/44/11 68/43/11 76/43/11 
f 76/49/1 68/32/1 67/35/1 73/50/1 
s 8
f 77/17/27 1/16/28 78/15/28 79/18/27 
f 80/19/29 77/17/27 79/18/27 81/20/29 
f 82/21/30 80/19/29 81/20/29 83/22/30 
f 84/23/31 82/21/30 83/22/30 85/24/31 
f 86/25/32 84/23/31 85/24/31 87/26/32 
f 5/27/33 86/25/32 87/26/32 88/28/33 
s 1
f 88/35/1 87/34/1 83/31/1 89/32/1 
f 87/34/1 85/33/1 83/31/1 
f 83/31/1 81/30/1 79/29/1 89/32/1 
f 78/36/1 89/32/1 79/29/1 
s off
f 78/58/9 1/59/9 4/37/9 90/40/9 
f 89/32/1 78/36/1 90/41/1 91/42/1 
f 92/44/10 89/43/10 91/43/10 93/44/10 
f 5/60/12 88/54/12 94/45/12 6/48/12 
f 89/43/11 92/44/11 95/44/11 96/43/11 
f 88/35/1 89/32/1 96/49/1 94/50/1 
s 1
f 8/8/1 40/61/1 42/62/1 44/63/1 
f 13/13/1 19/64/1 17/65/1 14/14/1 
f 13/13/1 23/66/1 21/67/1 19/64/1 
f 36/68/1 8/8/1 23/66/1 13/13/1 
f 38/69/1 40/61/1 8/8/1 36/68/1 
f 52/70/1 74/71/1 66/72/1 44/63/1 
f 64/73/1 62/74/1 44/63/1 66/72/1 
f 98/75/1 60/76/1 44/63/1 62/74/1 
f 1/1/1 58/77/1 97/78/1 2/2/1 
f 58/77/1 1/1/1 77/79/1 60/76/1 
f 60/76/1 77/79/1 80/80/1 44/63/1 
f 82/81/1 84/82/1 44/63/1 80/80/1 
f 86/83/1 5/5/1 44/63/1 84/82/1 
f 44/63/1 5/5/1 8/8/1 
# 73 polygons - 9 triangles

