# 3ds Max Wavefront OBJ Exporter v0.97b - (c)2007 guruware
# File Created: 09.08.2017 14:55:44

mtllib 4to2_T_NOPED.mtl

#
# object Plane002
#

v  25.6255 0.0000 -10.1821
v  25.6235 0.0000 10.5659
v  28.7791 0.0000 10.5659
v  28.7811 0.0000 -10.1821
v  18.8264 0.0000 -16.9812
v  18.8264 0.0000 -17.5757
v  -22.5564 0.0000 -17.5757
v  -22.5564 0.0000 -16.9812
v  -22.5564 0.3041 -17.5756
v  -22.5564 0.3041 -16.9812
v  -29.3555 0.0000 -17.5756
v  -29.3555 0.0000 -16.9812
v  -29.3555 0.3041 -16.9812
v  -29.3555 0.3041 -17.5756
v  -22.5584 0.0000 17.3650
v  -22.5584 0.3041 17.3650
v  -22.5584 0.3041 17.9594
v  -22.5584 0.0000 17.9594
v  -29.3575 0.3041 17.3650
v  -29.3575 0.0000 17.3650
v  -29.3575 0.0000 17.9594
v  -29.3575 0.3041 17.9594
v  25.6235 0.3041 10.5659
v  23.8638 0.0000 10.7975
v  23.8638 0.3041 10.7975
v  22.2239 0.0000 11.4768
v  22.2239 0.3041 11.4768
v  20.8158 0.0000 12.5573
v  20.8158 0.3041 12.5573
v  19.7353 0.0000 13.9654
v  19.7353 0.3041 13.9654
v  19.0560 0.0000 15.6053
v  19.0560 0.3041 15.6053
v  18.8244 0.0000 17.3650
v  18.8244 0.3041 17.3650
v  25.6235 0.3041 17.3650
v  26.6232 0.0022 10.5659
v  26.6232 0.0022 17.3650
v  25.6235 0.0000 17.3650
v  26.2179 0.0000 17.3650
v  18.8244 0.3041 17.9594
v  18.8244 0.0000 17.9594
v  25.6235 0.0000 17.9594
v  25.6235 0.3041 17.9594
v  23.8658 0.0000 -10.4138
v  25.6255 0.3041 -10.1821
v  23.8658 0.3041 -10.4138
v  22.2259 0.0000 -11.0930
v  22.2259 0.3041 -11.0930
v  20.8178 0.0000 -12.1735
v  20.8178 0.3041 -12.1735
v  19.7373 0.0000 -13.5817
v  19.7373 0.3041 -13.5817
v  19.0580 0.0000 -15.2215
v  19.0580 0.3041 -15.2215
v  18.8264 0.3041 -16.9812
v  25.6255 0.3041 -16.9812
v  26.6252 0.0022 -10.1821
v  26.6252 0.0022 -16.9812
v  25.6255 0.0000 -16.9812
v  26.2199 0.0000 -16.9812
v  18.8264 0.3041 -17.5756
v  25.6255 0.0000 -17.5756
v  25.6255 0.3041 -17.5756
v  23.8638 0.0000 10.7976
v  20.5986 0.0000 12.8404
v  -22.5584 0.3041 7.0137
v  -29.3575 0.3041 7.0137
v  26.2202 0.0000 -10.1821
v  26.2182 0.0000 10.5659
# 70 vertices

vn 0.0000 1.0000 -0.0000
vn 1.0000 0.0000 -0.0000
vn -1.0000 0.0000 -0.0000
vn -0.2588 0.0000 -0.9659
vn -0.1305 0.0000 -0.9914
vn -0.5000 0.0000 -0.8660
vn -0.7071 0.0000 -0.7071
vn -0.8660 0.0000 -0.5000
vn -0.9659 0.0000 -0.2588
vn -0.9914 0.0000 -0.1305
vn 0.0000 0.0000 -1.0000
vn 0.2890 0.9573 -0.0000
vn 0.0000 0.0000 1.0000
vn -0.2588 0.0000 0.9659
vn -0.1305 0.0000 0.9914
vn -0.5000 0.0000 0.8660
vn -0.7071 0.0000 0.7071
vn -0.8660 0.0000 0.5000
vn -0.9659 0.0000 0.2588
vn -0.9914 0.0000 0.1305
vn 1.0000 0.0020 0.0001
vn 1.0000 0.0000 0.0001
vn -1.0000 -0.0020 -0.0001
vn -1.0000 0.0000 -0.0001
# 24 vertex normals

vt 0.8930 0.6755 0.0000
vt 0.9471 0.6755 0.0000
vt 0.9471 0.2797 0.0000
vt 0.8930 0.2797 0.0000
vt 0.2436 0.8052 0.0000
vt 0.8581 0.8052 0.0000
vt 0.8581 0.8166 0.0000
vt 0.2436 0.8166 0.0000
vt 0.2278 0.2667 0.0000
vt 0.2417 0.2667 0.0000
vt 0.2417 0.2745 0.0000
vt 0.2278 0.2745 0.0000
vt 0.2416 0.9996 0.0000
vt 0.0005 0.9996 0.0000
vt 0.0005 0.9919 0.0000
vt 0.2416 0.9919 0.0000
vt 0.2278 0.9987 0.0000
vt 0.2278 0.9910 0.0000
vt 0.2417 0.9910 0.0000
vt 0.2417 0.9987 0.0000
vt 0.2416 0.4874 0.0000
vt 0.2416 0.2667 0.0000
vt 0.0005 0.2667 0.0000
vt 0.0005 0.2668 0.0000
vt 0.9697 0.0854 1.0000
vt 0.9697 0.0018 1.0000
vt 0.9978 0.0018 1.0000
vt 0.9978 0.0854 1.0000
vt 0.9697 0.1689 1.0000
vt 0.9978 0.1689 1.0000
vt 0.9697 0.2525 1.0000
vt 0.9978 0.2525 1.0000
vt 0.9697 0.3360 1.0000
vt 0.9978 0.3360 1.0000
vt 0.9697 0.4196 1.0000
vt 0.9978 0.4196 1.0000
vt 0.9697 0.5031 1.0000
vt 0.9978 0.5031 1.0000
vt 0.1815 0.1834 0.0000
vt 0.0200 0.0202 0.0000
vt 0.2406 0.0799 0.0000
vt 0.2178 0.1356 0.0000
vt 0.0791 0.2431 0.0000
vt 0.1342 0.2200 0.0000
vt 0.0200 0.2510 0.0000
vt 0.2484 0.0202 0.0000
vt 0.9696 0.2572 0.0000
vt 0.9697 0.2243 1.0000
vt 0.9978 0.2243 1.0000
vt 0.9977 0.2572 0.0000
vt 0.0200 0.0000 0.0000
vt 0.2484 0.0000 0.0000
vt 0.5000 0.0000 0.0000
vt 0.5000 1.0000 0.0000
vt 0.9978 0.5251 1.0000
vt 0.9697 0.5251 1.0000
vt 0.9697 0.4922 0.0000
vt 0.9978 0.4922 0.0000
vt 0.0000 0.2510 0.0000
vt 0.0000 0.0202 0.0000
vt 0.9696 0.1914 0.0000
vt 0.9977 0.1914 0.0000
vt 0.9977 0.5580 0.0000
vt 0.9697 0.5580 0.0000
vt 0.8615 0.1836 0.0000
vt 0.2436 0.1500 0.0000
vt 0.8581 0.1500 0.0000
vt 0.8716 0.2149 0.0000
vt 0.8844 0.2363 0.0000
vt 0.9590 0.6755 0.0000
vt 0.9085 0.2624 0.0000
vt 0.9329 0.2753 0.0000
vt 0.9590 0.2797 0.0000
vt 0.8876 0.2417 0.0000
vt 0.9329 0.6799 0.0000
vt 0.9086 0.6929 0.0000
vt 0.8877 0.7135 0.0000
vt 0.8716 0.7404 0.0000
vt 0.8615 0.7717 0.0000
vt 0.2436 0.1387 0.0000
vt 0.8581 0.1387 0.0000
vt 0.2417 0.6327 0.0000
vt 0.2416 0.9991 0.0000
vt 0.0004 0.9991 0.0000
vt 0.0004 0.4874 0.0000
vt 0.0004 0.2666 0.0000
vt 0.2416 0.2666 0.0000
# 87 texture coords

g Plane002
usemtl T_crossing
s 1
f 4/1/1 1/2/1 2/3/1 3/4/1 
f 8/5/1 5/6/1 6/7/1 7/8/1 
s off
f 7/9/2 9/10/2 10/11/2 8/12/2 
f 14/10/3 11/9/3 12/12/3 13/11/3 
f 9/13/1 14/14/1 13/15/1 10/16/1 
f 18/17/2 15/18/2 16/19/2 17/20/2 
f 22/20/3 19/19/3 20/18/3 21/17/3 
f 17/21/1 16/22/1 19/23/1 22/24/1 
s 8
f 25/25/4 23/26/5 2/27/5 24/28/4 
f 27/29/6 25/25/4 24/28/4 26/30/6 
f 29/31/7 27/29/6 26/30/6 28/32/7 
f 31/33/8 29/31/7 28/32/7 30/34/8 
f 33/35/9 31/33/8 30/34/8 32/36/9 
f 35/37/10 33/35/9 32/36/9 34/38/10 
s 1
f 29/39/1 36/40/1 25/41/1 27/42/1 
f 33/43/1 36/40/1 29/39/1 31/44/1 
f 33/43/1 35/45/1 36/40/1 
f 23/46/1 25/41/1 36/40/1 
s off
f 23/47/11 37/48/11 70/49/11 2/50/11 
f 38/51/12 37/52/12 23/46/12 36/40/12 
f 40/53/13 38/54/13 36/54/13 39/53/13 
f 42/55/3 41/56/3 35/57/3 34/58/3 
f 44/54/2 43/53/2 39/53/2 36/54/2 
f 41/59/1 44/60/1 36/40/1 35/45/1 
s 8
f 47/25/14 45/28/14 1/27/15 46/26/15 
f 49/29/16 48/30/16 45/28/14 47/25/14 
f 51/31/17 50/32/17 48/30/16 49/29/16 
f 53/33/18 52/34/18 50/32/17 51/31/17 
f 55/35/19 54/36/19 52/34/18 53/33/18 
f 56/37/20 5/38/20 54/36/19 55/35/19 
s 1
f 51/39/1 57/40/1 56/45/1 55/43/1 
f 55/43/1 53/44/1 51/39/1 
f 47/41/1 57/40/1 51/39/1 49/42/1 
f 46/46/1 57/40/1 47/41/1 
s off
f 69/49/13 58/48/13 46/61/13 1/62/13 
f 59/51/12 57/40/12 46/46/12 58/52/12 
f 61/53/11 60/53/11 57/54/11 59/54/11 
f 6/55/3 5/63/3 56/64/3 62/56/3 
f 64/54/2 57/54/2 60/53/2 63/53/2 
f 62/59/1 56/45/1 57/40/1 64/60/1 
s 1
f 32/65/1 8/5/1 15/66/1 34/67/1 
f 30/68/1 66/69/1 8/5/1 32/65/1 
f 1/70/1 26/71/1 65/72/1 2/73/1 
f 1/70/1 66/69/1 28/74/1 26/71/1 
f 45/75/1 8/5/1 66/69/1 1/70/1 
f 48/76/1 50/77/1 8/5/1 45/75/1 
f 52/78/1 54/79/1 8/5/1 50/77/1 
f 8/5/1 54/79/1 5/6/1 
f 15/66/1 18/80/1 42/81/1 34/67/1 
s off
f 67/82/21 16/19/21 8/12/21 10/11/21 
f 8/12/22 16/19/22 15/18/22 
f 67/21/1 10/83/1 13/84/1 68/85/1 
f 67/21/1 68/85/1 19/86/1 16/87/1 
f 68/82/23 13/11/23 20/18/23 19/19/23 
f 20/18/24 13/11/24 12/12/24 
# 48 polygons - 7 triangles

