# 3ds Max Wavefront OBJ Exporter v0.97b - (c)2007 guruware
# File Created: 09.08.2017 14:59:08

mtllib noped_2lines_T_right.mtl

#
# object Plane001
#

v  20.7481 0.0000 16.2142
v  17.3049 0.0000 22.9805
v  22.7062 0.0000 -20.6153
v  19.1940 0.0000 -21.1180
v  17.7859 0.0000 -22.1985
v  16.7054 0.0000 -23.6067
v  15.8010 0.0000 -25.2465
v  22.3314 0.0000 -5.8993
v  28.8630 0.0000 -24.1044
v  30.5012 0.0000 -26.0502
v  25.4498 -0.0168 9.7200
v  45.8298 0.0000 -12.0685
v  44.2395 0.0000 -10.9979
v  15.9973 0.0000 27.9735
v  15.8174 0.0000 -27.0062
v  16.4230 0.0000 -27.6007
v  -4.3233 0.0000 -27.6007
v  -4.3233 0.0000 -27.0062
v  -4.3233 0.0000 29.4048
v  16.6285 0.0000 29.3887
v  -4.3233 0.0000 27.6129
v  16.0203 0.0000 27.9735
# 22 vertices

vn 0.0029 1.0000 0.0005
vn 0.0001 1.0000 0.0002
vn 0.0002 1.0000 0.0003
vn 0.0000 1.0000 -0.0000
vn 0.0007 1.0000 -0.0000
# 5 vertex normals

vt 0.4328 0.0252 0.0000
vt 0.0601 0.4995 0.0000
vt 0.4247 0.4995 0.0000
vt 0.3647 0.9240 0.0000
vt 0.4183 0.9624 0.0000
vt 0.2217 1.0291 0.0000
vt 0.2547 0.9837 0.0000
vt 0.0310 0.5198 0.0000
vt 0.2623 1.0513 0.0000
vt 0.0003 -0.5468 0.0000
vt 0.0504 -0.3951 0.0000
vt 0.2707 1.0031 0.0000
vt 0.1694 -0.1863 0.0000
vt 0.2903 0.9627 0.0000
vt 0.3200 0.4804 0.0000
vt 0.3180 0.0164 0.0000
vt 0.4366 1.0032 0.0000
vt 0.0005 1.0000 0.0000
vt 0.0005 0.9793 0.0000
vt 0.9606 0.9793 0.0000
vt 0.9895 1.0000 0.0000
vt 0.0005 -0.9269 0.0000
vt 0.9703 -0.9395 0.0000
vt 0.0005 -0.9894 0.0000
vt 0.9993 -0.9888 0.0000
# 25 texture coords

g Plane001
usemtl noped2lines
s 1
f 11/1/1 13/2/2 8/3/3 
f 8/3/3 3/4/4 4/5/4 
f 8/3/3 13/2/2 3/4/4 
f 10/6/4 9/7/4 13/2/2 12/8/4 
f 3/4/4 13/2/2 9/7/4 
f 7/9/4 14/10/4 2/11/4 6/12/4 
f 6/12/4 2/11/4 1/13/5 5/14/4 
f 8/15/3 5/14/4 1/13/5 11/16/1 
f 8/3/3 4/5/4 5/17/4 
f 17/18/4 18/19/4 15/20/4 16/21/4 
f 21/22/4 22/23/4 15/20/4 18/19/4 
f 19/24/4 20/25/4 22/23/4 21/22/4 
# 7 polygons - 5 triangles

