# 3ds Max Wavefront OBJ Exporter v0.97b - (c)2007 guruware
# File Created: 09.08.2017 15:02:18

mtllib noped_to_2lines.mtl

#
# object Plane001
#

v  -10.4454 0.0513 -1.8738
v  -17.2460 0.0513 -1.8738
v  -17.2460 0.3000 3.8254
v  -10.4454 0.3000 3.8254
v  10.3017 0.0000 -3.4957
v  -10.4454 0.0000 -3.4957
v  -10.4454 0.0000 3.8254
v  10.3017 0.0000 3.8254
v  17.1023 0.0513 -1.8738
v  10.3017 0.0513 -1.8738
v  10.3017 0.3000 3.8254
v  17.1023 0.3000 3.8254
v  -17.2460 0.0000 -1.8738
v  -17.2460 0.0000 3.8254
v  17.1023 0.0000 -1.8738
v  17.1023 0.0000 3.8254
v  -10.4454 0.0000 -1.8738
v  10.3017 0.0000 -1.8738
# 18 vertices

vn 0.0000 0.9990 -0.0436
vn 0.0000 1.0000 -0.0000
vn 1.0000 0.0000 -0.0000
vn -1.0000 0.0000 -0.0000
# 4 vertex normals

vt 0.2030 0.2612 0.5000
vt 0.0005 0.2612 0.5000
vt 0.0005 0.0005 0.5000
vt 0.2030 0.0005 0.5000
vt 0.7964 0.2612 0.5000
vt 0.7964 0.0005 0.5000
vt 0.9995 0.2612 0.5000
vt 0.9995 0.0005 0.5000
vt 0.2011 1.0767 0.0000
vt 0.2011 1.5985 0.0000
vt 0.1907 1.5985 0.0000
vt 0.1907 1.0767 0.0000
# 12 texture coords

g Plane001
usemtl 2lines
s 1
f 1/1/1 2/2/1 3/3/1 4/4/1 
f 5/5/2 6/1/2 7/4/2 8/6/2 
f 9/7/1 10/5/1 11/6/1 12/8/1 
s off
f 1/9/3 4/10/3 7/11/3 17/12/3 
f 3/10/4 2/9/4 13/12/4 14/11/4 
f 9/9/3 12/10/3 16/11/3 15/12/3 
f 11/10/4 10/9/4 18/12/4 8/11/4 
# 7 polygons

