# 3ds Max Wavefront OBJ Exporter v0.97b - (c)2007 guruware
# File Created: 09.08.2017 15:03:08

mtllib T-4lines.mtl

#
# object Plane001
#

v  26.8859 0.0000 -20.3362
v  26.8859 0.0000 21.0584
v  27.4806 0.0000 21.0584
v  27.4806 0.0000 -20.3362
v  20.0868 0.0000 -27.1353
v  20.0868 0.0000 -27.7298
v  -21.2960 0.0000 -27.7298
v  -21.2960 0.0000 -27.1353
v  -21.2960 0.3041 -27.7297
v  -21.2960 0.3041 -27.1353
v  -28.0951 0.0000 -27.7297
v  -28.0951 0.0000 -27.1353
v  -28.0951 0.3041 -27.1353
v  -28.0951 0.3041 -27.7297
v  -21.2960 0.0000 27.8575
v  -21.2960 0.3041 27.8575
v  -21.2960 0.3041 28.4519
v  -21.2960 0.0000 28.4519
v  -28.0951 0.3041 27.8575
v  -28.0951 0.0000 27.8575
v  -28.0951 0.0000 28.4519
v  -28.0951 0.3041 28.4519
v  26.8859 0.3041 21.0584
v  25.1262 0.0000 21.2900
v  25.1262 0.3041 21.2900
v  23.4863 0.0000 21.9693
v  23.4863 0.3041 21.9693
v  22.0782 0.0000 23.0498
v  22.0782 0.3041 23.0498
v  20.9977 0.0000 24.4579
v  20.9977 0.3041 24.4579
v  20.3184 0.0000 26.0978
v  20.3184 0.3041 26.0978
v  20.0868 0.0000 27.8575
v  20.0868 0.3041 27.8575
v  26.8859 0.3041 27.8575
v  27.4803 0.3041 21.0584
v  27.4803 0.3041 27.8575
v  26.8859 0.0000 27.8575
v  27.4803 0.0000 27.8575
v  20.0868 0.3041 28.4519
v  20.0868 0.0000 28.4519
v  26.8859 0.0000 28.4519
v  26.8859 0.3041 28.4519
v  25.1262 0.0000 -20.5679
v  26.8859 0.3041 -20.3362
v  25.1262 0.3041 -20.5679
v  23.4863 0.0000 -21.2471
v  23.4863 0.3041 -21.2471
v  22.0782 0.0000 -22.3276
v  22.0782 0.3041 -22.3276
v  20.9977 0.0000 -23.7358
v  20.9977 0.3041 -23.7358
v  20.3184 0.0000 -25.3756
v  20.3184 0.3041 -25.3756
v  20.0868 0.3041 -27.1353
v  26.8859 0.3041 -27.1353
v  27.4803 0.3041 -20.3362
v  27.4803 0.3041 -27.1353
v  26.8859 0.0000 -27.1353
v  27.4803 0.0000 -27.1353
v  20.0868 0.3041 -27.7297
v  26.8859 0.0000 -27.7297
v  26.8859 0.3041 -27.7297
v  25.1262 0.0000 21.2901
v  21.8610 0.0000 23.3329
v  -21.2960 0.3041 0.3611
v  -28.0951 0.3041 0.3611
# 68 vertices

vn 0.0000 1.0000 -0.0000
vn 1.0000 0.0000 -0.0000
vn -1.0000 0.0000 -0.0000
vn -0.1305 0.0000 -0.9914
vn -0.2588 0.0000 -0.9659
vn -0.5000 0.0000 -0.8660
vn -0.7071 0.0000 -0.7071
vn -0.8660 0.0000 -0.5000
vn -0.9659 0.0000 -0.2588
vn -0.9914 0.0000 -0.1305
vn 0.0000 0.0000 -1.0000
vn 0.0000 0.0000 1.0000
vn -0.1305 0.0000 0.9914
vn -0.2588 0.0000 0.9659
vn -0.5000 0.0000 0.8660
vn -0.7071 0.0000 0.7071
vn -0.8660 0.0000 0.5000
vn -0.9659 0.0000 0.2588
vn -0.9914 0.0000 0.1305
# 19 vertex normals

vt 0.9459 0.2408 0.0000
vt 0.9547 0.2408 0.0000
vt 0.9547 0.8849 0.0000
vt 0.9459 0.8849 0.0000
vt 0.8468 1.0000 0.0000
vt 0.2434 1.0000 0.0000
vt 0.2434 0.9907 0.0000
vt 0.8468 0.9908 0.0000
vt 0.2417 0.2745 0.0000
vt 0.2278 0.2745 0.0000
vt 0.2278 0.2667 0.0000
vt 0.2417 0.2667 0.0000
vt 0.0005 0.9919 0.0000
vt 0.2416 0.9919 0.0000
vt 0.2416 0.9996 0.0000
vt 0.0005 0.9996 0.0000
vt 0.2417 0.9910 0.0000
vt 0.2417 0.9987 0.0000
vt 0.2278 0.9987 0.0000
vt 0.2278 0.9910 0.0000
vt 0.0005 0.2667 0.0000
vt 0.0005 0.2668 0.0000
vt 0.2416 0.2668 0.0000
vt 0.2416 0.2667 0.0000
vt 0.9978 0.0018 1.0000
vt 0.9978 0.0854 1.0000
vt 0.9697 0.0854 1.0000
vt 0.9697 0.0018 1.0000
vt 0.9978 0.1689 1.0000
vt 0.9697 0.1689 1.0000
vt 0.9978 0.2525 1.0000
vt 0.9697 0.2525 1.0000
vt 0.9978 0.3360 1.0000
vt 0.9697 0.3360 1.0000
vt 0.9978 0.4196 1.0000
vt 0.9697 0.4196 1.0000
vt 0.9978 0.5031 1.0000
vt 0.9697 0.5031 1.0000
vt 0.1815 0.1834 0.0000
vt 0.0200 0.0202 0.0000
vt 0.2406 0.0799 0.0000
vt 0.2178 0.1356 0.0000
vt 0.0791 0.2431 0.0000
vt 0.1342 0.2200 0.0000
vt 0.0200 0.2510 0.0000
vt 0.2484 0.0202 0.0000
vt 0.9977 0.2572 0.0000
vt 0.9696 0.2572 0.0000
vt 0.9697 0.2243 1.0000
vt 0.9978 0.2243 1.0000
vt 0.0200 0.0000 0.0000
vt 0.2484 0.0000 0.0000
vt 0.5000 1.0000 0.0000
vt 0.5000 0.0000 0.0000
vt 0.9697 0.4922 0.0000
vt 0.9978 0.4922 0.0000
vt 0.9978 0.5251 1.0000
vt 0.9697 0.5251 1.0000
vt 0.0000 0.2510 0.0000
vt 0.0000 0.0202 0.0000
vt 0.9977 0.1914 0.0000
vt 0.9696 0.1914 0.0000
vt 0.9697 0.5580 0.0000
vt 0.9977 0.5580 0.0000
vt 0.9202 0.2372 0.0000
vt 0.8964 0.2266 0.0000
vt 0.8758 0.2098 0.0000
vt 0.8726 0.2054 0.0000
vt 0.9202 0.8885 0.0000
vt 0.8964 0.8991 0.0000
vt 0.8758 0.9159 0.0000
vt 0.8600 0.9378 0.0000
vt 0.8501 0.9634 0.0000
vt 0.8600 0.1879 0.0000
vt 0.8501 0.1623 0.0000
vt 0.8468 0.1350 0.0000
vt 0.2434 0.1350 0.0000
vt 0.8468 0.1257 0.0000
vt 0.2434 0.1257 0.0000
vt 0.2417 0.6327 0.0000
vt 0.2416 0.9992 0.0000
vt 0.0005 0.9992 0.0000
vt 0.0004 0.9991 0.0000
vt 0.0004 0.2668 0.0000
vt 0.2416 0.9991 0.0000
# 85 texture coords

g Plane001
usemtl T_crossing
s 1
f 2/1/1 3/2/1 4/3/1 1/4/1 
f 6/5/1 7/6/1 8/7/1 5/8/1 
s off
f 10/9/2 8/10/2 7/11/2 9/12/2 
f 12/10/3 13/9/3 14/12/3 11/11/3 
f 13/13/1 10/14/1 9/15/1 14/16/1 
f 16/17/2 17/18/2 18/19/2 15/20/2 
f 20/20/3 21/19/3 22/18/3 19/17/3 
f 19/21/1 22/22/1 17/23/1 16/24/1 
s 8
f 2/25/4 24/26/5 25/27/5 23/28/4 
f 24/26/5 26/29/6 27/30/6 25/27/5 
f 26/29/6 28/31/7 29/32/7 27/30/6 
f 28/31/7 30/33/8 31/34/8 29/32/7 
f 30/33/8 32/35/9 33/36/9 31/34/8 
f 32/35/9 34/37/10 35/38/10 33/36/9 
s 1
f 29/39/1 36/40/1 25/41/1 27/42/1 
f 33/43/1 36/40/1 29/39/1 31/44/1 
f 33/43/1 35/45/1 36/40/1 
f 23/46/1 25/41/1 36/40/1 
s off
f 2/47/11 23/48/11 37/49/11 3/50/11 
f 23/46/1 36/40/1 38/51/1 37/52/1 
f 36/53/12 39/54/12 40/54/12 38/53/12 
f 35/55/3 34/56/3 42/57/3 41/58/3 
f 39/54/2 36/53/2 44/53/2 43/54/2 
f 36/40/1 35/45/1 41/59/1 44/60/1 
s 8
f 1/25/13 46/28/13 47/27/14 45/26/14 
f 45/26/14 47/27/14 49/30/15 48/29/15 
f 48/29/15 49/30/15 51/32/16 50/31/16 
f 50/31/16 51/32/16 53/34/17 52/33/17 
f 52/33/17 53/34/17 55/36/18 54/35/18 
f 54/35/18 55/36/18 56/38/19 5/37/19 
s 1
f 51/39/1 57/40/1 56/45/1 55/43/1 
f 55/43/1 53/44/1 51/39/1 
f 47/41/1 57/40/1 51/39/1 49/42/1 
f 46/46/1 57/40/1 47/41/1 
s off
f 1/61/12 4/50/12 58/49/12 46/62/12 
f 46/46/1 58/52/1 59/51/1 57/40/1 
f 57/53/11 59/53/11 61/54/11 60/54/11 
f 56/63/3 62/58/3 6/57/3 5/64/3 
f 60/54/2 63/54/2 64/53/2 57/53/2 
f 57/40/1 64/60/1 62/59/1 56/45/1 
s 1
f 65/65/1 2/1/1 1/4/1 26/66/1 
f 28/67/1 26/66/1 1/4/1 66/68/1 
f 66/68/1 1/4/1 45/69/1 8/7/1 
f 8/7/1 45/69/1 48/70/1 50/71/1 
f 8/7/1 50/71/1 52/72/1 54/73/1 
f 54/73/1 5/8/1 8/7/1 
f 30/74/1 66/68/1 8/7/1 32/75/1 
f 34/76/1 32/75/1 8/7/1 15/77/1 
f 42/78/1 34/76/1 15/77/1 18/79/1 
s off
f 8/10/2 10/9/2 67/80/2 16/17/2 
f 8/10/2 16/17/2 15/20/2 
f 67/81/1 68/82/1 19/21/1 16/24/1 
f 20/20/3 19/17/3 68/80/3 13/9/3 
f 20/20/3 13/9/3 12/10/3 
f 13/83/1 68/84/1 67/23/1 10/85/1 
# 48 polygons - 7 triangles

