# 3ds Max Wavefront OBJ Exporter v0.97b - (c)2007 guruware
# File Created: 09.08.2017 14:56:58

mtllib Y_4to2.mtl

#
# object Object001
#

v  -1.1165 0.0000 18.8666
v  -1.1165 0.3041 18.8666
v  -2.8762 0.0000 19.0982
v  -2.8762 0.3041 19.0982
v  -4.5161 0.0000 19.7775
v  -4.5161 0.3041 19.7775
v  -5.9242 0.0000 20.8580
v  -5.9242 0.3041 20.8580
v  -7.0047 0.0000 22.2661
v  -7.0047 0.3041 22.2661
v  -7.6840 0.0000 23.9060
v  -7.6840 0.3041 23.9060
v  -7.9156 0.0000 25.6657
v  -7.9156 0.3041 25.6657
v  -1.1165 0.3041 25.6657
v  -0.5315 0.3041 18.8664
v  -0.5315 0.3041 25.6655
v  -1.1165 0.0000 25.6657
v  -0.5315 0.0000 25.6655
v  -7.9156 0.3041 26.2601
v  -7.9156 0.0000 26.2601
v  -1.1165 0.0000 26.2601
v  -1.1165 0.3041 26.2601
v  6.8620 0.0000 25.6655
v  6.8620 0.0000 26.2602
v  6.8620 0.3041 25.6655
v  6.6304 0.0000 23.9058
v  6.6304 0.3041 23.9058
v  5.9511 0.0000 22.2659
v  5.9511 0.3041 22.2659
v  4.8706 0.0000 20.8578
v  4.8706 0.3041 20.8578
v  3.4625 0.0000 19.7773
v  3.4625 0.3041 19.7773
v  1.8226 0.0000 19.0980
v  1.8226 0.3041 19.0980
v  0.0629 0.0000 18.8664
v  0.0629 0.3041 18.8664
v  0.0629 0.3041 25.6655
v  6.8620 0.3041 26.2599
v  0.0629 0.3041 26.2599
v  0.0629 0.0000 25.6655
v  0.0629 0.0000 26.2599
v  21.9980 0.0000 -32.1425
v  21.9980 0.0000 -32.7370
v  -19.3848 0.0000 -32.7370
v  -19.3848 0.0000 -32.1425
v  -19.3848 0.3041 -32.7369
v  -19.3848 0.3041 -32.1425
v  -26.1839 0.0000 -32.7369
v  -26.1839 0.0000 -32.1425
v  -26.1839 0.3041 -32.1425
v  -26.1839 0.3041 -32.7369
v  21.9980 0.3041 -32.1425
v  28.7971 0.3041 -32.1425
v  28.7971 0.0000 -32.1425
v  21.9980 0.3041 -32.7369
v  28.7971 0.0000 -32.7369
v  28.7971 0.3041 -32.7369
v  -20.6606 0.0000 -12.8637
v  23.2739 0.0000 -12.8637
v  -20.6606 0.3041 -12.8637
v  -27.8790 0.0000 -12.8637
v  -27.8790 0.3041 -12.8637
v  23.2739 0.3041 -12.8637
v  30.4922 0.3041 -12.8637
v  30.4922 0.0000 -12.8637
v  -28.6368 0.0000 26.2836
v  27.5883 0.0000 26.2658
v  -28.6368 0.3041 26.2836
v  -35.4359 0.0000 26.2836
v  -35.4359 0.3041 26.2836
v  27.5883 0.3041 26.2658
v  34.3874 0.3041 26.2658
v  34.3874 0.0000 26.2658
# 75 vertices

vn -0.1305 0.0000 -0.9914
vn -0.2588 0.0000 -0.9659
vn -0.5000 0.0000 -0.8660
vn -0.7071 0.0000 -0.7071
vn -0.8660 0.0000 -0.5000
vn -0.9659 0.0000 -0.2588
vn -0.9914 0.0000 -0.1305
vn 0.0000 1.0000 -0.0000
vn -0.0001 -0.0003 -1.0000
vn -0.0001 0.0000 -1.0000
vn 0.0003 0.0000 1.0000
vn 0.0000 0.0000 1.0000
vn -1.0000 0.0000 -0.0000
vn 1.0000 0.0000 -0.0000
vn 0.9915 0.0000 -0.1305
vn 0.9659 0.0000 -0.2588
vn 0.8660 0.0000 -0.5000
vn 0.7071 0.0000 -0.7071
vn 0.5000 0.0000 -0.8660
vn 0.2588 0.0000 -0.9659
vn 0.1305 0.0000 -0.9914
vn 0.9978 0.0000 0.0660
vn -0.9962 0.0000 -0.0876
vn -0.9978 0.0000 0.0660
vn 0.9962 0.0000 -0.0876
vn 0.9799 0.0000 0.1996
vn -0.9819 0.0000 -0.1895
vn -0.9940 0.0000 0.1096
vn 0.9951 0.0000 -0.0991
# 29 vertex normals

vt 0.4842 0.4367 1.0000
vt 0.4981 0.4367 1.0000
vt 0.4981 0.5203 1.0000
vt 0.4842 0.5203 1.0000
vt 0.4981 0.6038 1.0000
vt 0.4842 0.6038 1.0000
vt 0.4981 0.6874 1.0000
vt 0.4842 0.6874 1.0000
vt 0.4981 0.7709 1.0000
vt 0.4842 0.7709 1.0000
vt 0.4981 0.8545 1.0000
vt 0.4842 0.8545 1.0000
vt 0.4981 0.9380 1.0000
vt 0.4842 0.9380 1.0000
vt 0.7452 0.0799 0.0000
vt 0.7340 0.1356 0.0000
vt 0.7160 0.1834 0.0000
vt 0.6361 0.0202 0.0000
vt 0.6926 0.2200 0.0000
vt 0.6654 0.2431 0.0000
vt 0.6361 0.2510 0.0000
vt 0.7491 0.0202 0.0000
vt 0.4842 0.9600 1.0000
vt 0.4842 0.9271 0.0000
vt 0.4981 0.9923 1.9842
vt 0.4842 0.9923 1.9842
vt 0.4981 0.9271 0.0000
vt 0.7491 0.0000 0.0000
vt 0.6361 0.0000 0.0000
vt 0.4846 0.8929 0.0000
vt 0.4846 1.0000 0.0000
vt 0.4987 1.0000 0.0000
vt 0.4987 0.8929 0.0000
vt 0.4981 0.9600 1.0000
vt 0.6262 0.0202 0.0000
vt 0.6262 0.2510 0.0000
vt 0.4844 0.4389 1.0000
vt 0.4994 0.4389 1.0000
vt 0.4994 0.5123 1.0000
vt 0.4844 0.5123 1.0000
vt 0.4995 0.4364 1.0000
vt 0.4994 0.4584 0.0000
vt 0.4843 0.4584 0.0000
vt 0.4844 0.4364 1.0000
vt 0.4336 0.9874 0.0000
vt 0.4336 1.0000 0.0000
vt 0.0805 1.0000 0.0000
vt 0.0805 0.9874 0.0000
vt 0.4998 0.0023 0.0000
vt 0.4998 0.0176 0.0000
vt 0.4854 0.0176 0.0000
vt 0.4854 0.0023 0.0000
vt 0.5017 0.9994 0.0000
vt 0.5017 0.9652 0.0000
vt 0.6251 0.9652 0.0000
vt 0.6251 0.9994 0.0000
vt 0.4998 1.5072 0.0000
vt 0.4856 1.5072 0.0000
vt 0.4856 1.5225 0.0000
vt 0.4998 1.5225 0.0000
vt 0.5014 0.9713 0.0000
vt 0.6253 0.9713 0.0000
vt 0.6253 0.9995 0.0000
vt 0.5014 0.9995 0.0000
vt 0.0696 0.5788 0.0000
vt 0.4445 0.5788 0.0000
vt 0.4998 0.5142 0.0000
vt 0.4854 0.5142 0.0000
vt 0.5017 0.3926 0.0000
vt 0.6251 0.3926 0.0000
vt 0.4998 1.0102 0.0000
vt 0.4856 1.0102 0.0000
vt 0.5014 0.1543 0.0000
vt 0.6253 0.1543 0.0000
vt 0.4854 1.5225 0.0000
vt 0.5017 -1.5083 0.0000
vt 0.6251 -1.5083 0.0000
vt 0.4998 0.0015 0.0000
vt 0.4856 0.0015 0.0000
vt 0.5014 -1.5087 0.0000
vt 0.6253 -1.5087 0.0000
vt 0.4813 -0.2505 0.0000
vt 0.3045 -0.2377 0.0000
vt 0.3045 -0.2503 0.0000
vt 0.2364 -0.0936 0.0000
vt 0.2464 -0.0936 0.0000
vt 0.2614 -0.0986 0.0000
vt 0.2754 -0.1129 0.0000
vt 0.2875 -0.1358 0.0000
vt 0.2967 -0.1657 0.0000
vt 0.3025 -0.2004 0.0000
vt 0.1783 -0.2377 0.0000
vt 0.1803 -0.2004 0.0000
vt 0.1861 -0.1657 0.0000
vt 0.1953 -0.1359 0.0000
vt 0.2074 -0.1130 0.0000
vt 0.2213 -0.0986 0.0000
vt 0.0015 -0.2508 0.0000
vt 0.1783 -0.2503 0.0000
# 99 texture coords

g Object001
usemtl T_crossing_BIG
s 8
f 2/1/1 1/2/1 3/3/2 4/4/2 
f 4/4/2 3/3/2 5/5/3 6/6/3 
f 6/6/3 5/5/3 7/7/4 8/8/4 
f 8/8/4 7/7/4 9/9/5 10/10/5 
f 10/10/5 9/9/5 11/11/6 12/12/6 
f 12/12/6 11/11/6 13/13/7 14/14/7 
s 1
f 4/15/8 6/16/8 8/17/8 15/18/8 
f 8/17/8 10/19/8 12/20/8 15/18/8 
f 12/20/8 14/21/8 15/18/8 
f 2/22/8 4/15/8 15/18/8 
s off
f 16/23/9 38/24/9 1/25/9 2/26/9 
f 1/25/10 38/24/10 37/27/10 
f 16/28/8 2/22/8 15/18/8 17/29/8 
f 18/30/11 19/30/11 17/31/11 15/31/11 
f 39/32/12 17/31/12 19/30/12 42/33/12 
f 20/23/13 14/24/13 13/27/13 21/34/13 
f 22/30/14 18/30/14 15/31/14 23/31/14 
f 23/35/8 15/18/8 14/21/8 20/36/8 
s 8
f 26/37/15 24/38/15 27/39/16 28/40/16 
f 28/40/16 27/39/16 29/5/17 30/6/17 
f 30/6/17 29/5/17 31/7/18 32/8/18 
f 32/8/18 31/7/18 33/9/19 34/10/19 
f 34/10/19 33/9/19 35/11/20 36/12/20 
f 36/12/20 35/11/20 37/13/21 38/14/21 
s 1
f 28/15/8 30/16/8 32/17/8 39/18/8 
f 32/17/8 34/19/8 36/20/8 39/18/8 
f 36/20/8 38/21/8 39/18/8 
f 26/22/8 28/15/8 39/18/8 
s off
f 25/41/14 24/42/14 26/43/14 40/44/14 
f 40/28/8 26/22/8 39/18/8 41/29/8 
f 41/32/13 39/32/13 42/33/13 43/33/13 
f 17/35/8 39/18/8 38/21/8 16/36/8 
s 1
f 44/45/8 45/46/8 46/47/8 47/48/8 
s off
f 48/49/14 49/50/14 47/51/14 46/52/14 
f 50/52/13 51/51/13 52/50/13 53/49/13 
f 53/53/8 52/54/8 49/55/8 48/56/8 
f 44/57/13 54/58/13 57/59/13 45/60/13 
f 55/58/14 56/57/14 58/60/14 59/59/14 
f 54/61/8 55/62/8 59/63/8 57/64/8 
s 1
f 47/48/8 60/65/8 61/66/8 44/45/8 
s off
f 49/50/22 62/67/22 60/68/22 47/51/22 
f 51/51/23 63/68/23 64/67/23 52/50/23 
f 52/54/8 64/69/8 62/70/8 49/55/8 
f 44/57/24 61/71/24 65/72/24 54/58/24 
f 55/58/25 66/72/25 67/71/25 56/57/25 
f 55/62/8 54/61/8 65/73/8 66/74/8 
f 62/67/26 70/60/26 68/75/26 60/68/26 
f 63/68/27 71/75/27 72/60/27 64/67/27 
f 64/69/8 72/76/8 70/77/8 62/70/8 
f 61/71/28 69/78/28 73/79/28 65/72/28 
f 66/72/29 74/79/29 75/78/29 67/71/29 
f 66/74/8 65/73/8 73/80/8 74/81/8 
s 22
f 69/82/8 61/66/8 24/83/8 25/84/8 
f 60/65/8 1/85/8 37/86/8 61/66/8 
f 61/66/8 37/86/8 35/87/8 
f 61/66/8 35/87/8 33/88/8 
f 61/66/8 33/88/8 31/89/8 
f 61/66/8 31/89/8 29/90/8 
f 61/66/8 29/90/8 27/91/8 
f 61/66/8 27/91/8 24/83/8 
f 60/65/8 13/92/8 11/93/8 
f 60/65/8 9/94/8 7/95/8 
f 60/65/8 7/95/8 5/96/8 
f 60/65/8 5/96/8 3/97/8 
f 60/65/8 3/97/8 1/85/8 
f 68/98/8 21/99/8 13/92/8 60/65/8 
f 11/93/8 9/94/8 60/65/8 
# 50 polygons - 17 triangles

