# This file uses centimeters as units for non-parametric coordinates.

mtllib Espada_001.mtl
g default
v -0.068800 -1.523245 0.008492
v 0.072412 -1.523245 0.008492
v -0.086948 -0.794002 0.022563
v 0.090561 -0.794002 0.022563
v -0.086948 -0.794002 -0.115083
v 0.090561 -0.794002 -0.115083
v -0.068800 -1.523245 -0.101011
v 0.072412 -1.523245 -0.101011
v -0.073080 -1.010803 0.011809
v -0.073080 -1.010803 -0.104329
v 0.076693 -1.010803 -0.104329
v 0.076693 -1.010803 0.011809
v -0.064031 -1.360779 0.004791
v -0.064031 -1.360779 -0.097311
v 0.067643 -1.360779 -0.097311
v 0.067643 -1.360779 0.004791
v -0.083735 -1.704962 0.039282
v 0.087348 -1.704962 0.039282
v -0.083735 -1.533877 0.039282
v 0.087348 -1.533877 0.039282
v -0.083735 -1.533877 -0.131802
v 0.087348 -1.533877 -0.131802
v -0.083735 -1.704962 -0.131802
v 0.087348 -1.704962 -0.131802
v 0.117289 -1.619420 0.069222
v 0.001806 -1.503938 0.069222
v -0.113676 -1.503938 -0.046260
v 0.117289 -1.503938 -0.046260
v 0.001806 -1.503938 -0.161742
v -0.113676 -1.619420 -0.161742
v 0.117289 -1.619420 -0.161742
v 0.001806 -1.734901 -0.161742
v -0.113676 -1.734901 -0.046260
v 0.117289 -1.734901 -0.046260
v 0.001806 -1.734901 0.069222
v -0.113676 -1.619420 0.069222
v 0.001806 -1.619420 0.107716
v 0.001806 -1.465444 -0.046260
v 0.001806 -1.619420 -0.200235
v 0.001806 -1.773395 -0.046260
v 0.155782 -1.619420 -0.046260
v -0.152169 -1.619420 -0.046260
v -0.170954 -0.851507 0.037688
v 0.174566 -0.851507 0.037688
v -0.275544 2.182577 0.036060
v 0.279157 2.182577 0.036060
v -0.275544 2.182577 -0.128580
v 0.279157 2.182577 -0.128580
v -0.170954 -0.851507 -0.130208
v 0.174566 -0.851507 -0.130208
v -0.362814 2.054722 0.061964
v -0.362814 2.054722 -0.154484
v 0.366426 2.054722 -0.154484
v 0.366426 2.054722 0.061964
v -0.362814 -0.736167 0.061964
v -0.362814 -0.736167 -0.154484
v 0.366426 -0.736167 -0.154484
v 0.366426 -0.736167 0.061964
v 0.606092 1.505503 0.013224
v 0.557595 1.934784 0.013224
v -0.602479 1.473171 0.013224
v -0.545900 1.950951 0.013224
v -0.602479 1.473171 -0.105743
v -0.545900 1.950951 -0.105743
v 0.606092 1.505503 -0.105743
v 0.557595 1.934784 -0.105743
v 0.638424 0.784344 0.013224
v 0.606092 1.197462 0.013224
v -0.602479 0.792427 0.013224
v -0.626727 1.221709 0.013224
v -0.602479 0.792427 -0.105743
v -0.626727 1.221709 -0.105743
v 0.638424 0.784344 -0.105743
v 0.606092 1.197462 -0.105743
v 0.598009 0.030855 0.013224
v 0.606092 0.476303 0.013224
v -0.545900 0.014689 0.013224
v -0.521651 0.460139 0.013224
v -0.545900 0.014689 -0.105743
v -0.521651 0.460139 -0.105743
v 0.598009 0.030855 -0.105743
v 0.606092 0.476303 -0.105743
v 0.549513 -0.657971 0.013224
v 0.606092 -0.244855 0.013224
v -0.618645 -0.690303 0.013224
v -0.586313 -0.293351 0.013224
v -0.618645 -0.690303 -0.105743
v -0.586313 -0.293351 -0.105743
v 0.549513 -0.657971 -0.105743
v 0.606092 -0.244855 -0.105743
vt 0.182513 0.423478
vt 0.191277 0.423478
vt 0.191493 0.443275
vt 0.182297 0.443274
vt 0.207680 0.441167
vt 0.198692 0.442671
vt 0.197901 0.422923
vt 0.206992 0.421381
vt 0.175522 0.422878
vt 0.175267 0.442695
vt 0.173709 0.485300
vt 0.181685 0.485961
vt 0.181244 0.512423
vt 0.172314 0.511657
vt 0.212729 0.509750
vt 0.201158 0.511701
vt 0.200253 0.485279
vt 0.210456 0.483573
vt 0.192104 0.485961
vt 0.192546 0.512423
vt 0.183215 0.546159
vt 0.184831 0.547775
vt 0.182752 0.555465
vt 0.173065 0.555465
vt 0.187880 0.550824
vt 0.187637 0.555466
vt 0.187879 0.560108
vt 0.184831 0.563156
vt 0.183215 0.564772
vt 0.192521 0.565235
vt 0.192521 0.574922
vt 0.192521 0.560351
vt 0.197163 0.560108
vt 0.200211 0.563157
vt 0.201827 0.564774
vt 0.202290 0.555467
vt 0.211977 0.555469
vt 0.197406 0.555466
vt 0.197164 0.550824
vt 0.200213 0.547777
vt 0.201828 0.546161
vt 0.192522 0.545697
vt 0.192523 0.536010
vt 0.192521 0.550582
vt 0.192521 0.555466
vt 0.206245 0.541746
vt 0.178801 0.541743
vt 0.178799 0.569187
vt 0.206243 0.569190
vt 0.105475 0.426885
vt 0.134792 0.426885
vt 0.151071 0.436672
vt 0.089196 0.436672
vt 0.063426 0.698293
vt 0.016360 0.698293
vt 0.016360 0.684324
vt 0.063426 0.684324
vt 0.070831 0.436672
vt 0.008955 0.436672
vt 0.025235 0.426885
vt 0.054552 0.426885
vt 0.105475 0.412639
vt 0.134792 0.412639
vt 0.153131 0.426885
vt 0.167377 0.426885
vt 0.169436 0.436672
vt 0.072890 0.426885
vt 0.087136 0.426885
vt 0.070831 0.673475
vt 0.089196 0.673475
vt 0.086998 0.684324
vt 0.073028 0.684324
vt 0.008955 0.673475
vt 0.151071 0.673475
vt 0.169436 0.673475
vt 0.167239 0.684324
vt 0.153269 0.684324
vt 0.143666 0.684324
vt 0.096601 0.684324
vt 0.255854 0.437757
vt 0.276548 0.438979
vt 0.280199 0.491981
vt 0.257379 0.495930
vt 0.250902 0.501761
vt 0.228063 0.499057
vt 0.228696 0.493365
vt 0.251615 0.496079
vt 0.229433 0.440243
vt 0.250097 0.437908
vt 0.256225 0.432042
vt 0.276853 0.433260
vt 0.223707 0.440159
vt 0.222930 0.493277
vt 0.186454 0.614011
vt 0.206341 0.615567
vt 0.207500 0.674911
vt 0.186852 0.673745
vt 0.207169 0.680628
vt 0.186538 0.679463
vt 0.233837 0.672820
vt 0.213234 0.674799
vt 0.212082 0.615453
vt 0.231861 0.613119
vt 0.211426 0.609764
vt 0.231175 0.607433
vt 0.180728 0.614048
vt 0.181117 0.673782
vt 0.272053 0.616847
vt 0.293486 0.616159
vt 0.293465 0.670449
vt 0.272041 0.671915
vt 0.265906 0.677626
vt 0.244514 0.676154
vt 0.244900 0.670440
vt 0.266307 0.671914
vt 0.244892 0.616150
vt 0.266326 0.616846
vt 0.271870 0.611123
vt 0.293301 0.610436
vt 0.239165 0.616150
vt 0.239165 0.670440
vt 0.231349 0.529081
vt 0.251106 0.525548
vt 0.251101 0.582993
vt 0.232104 0.585324
vt 0.251783 0.588679
vt 0.232817 0.591006
vt 0.275871 0.585318
vt 0.256843 0.582990
vt 0.256878 0.525556
vt 0.276546 0.529065
vt 0.257929 0.519926
vt 0.277506 0.523419
vt 0.225623 0.529157
vt 0.226363 0.585402
vn -0.614017 0.035983 0.788472
vn 0.614017 0.035983 0.788472
vn 0.611298 -0.010651 0.791329
vn -0.611298 -0.010651 0.791329
vn -0.611298 -0.010651 -0.791329
vn 0.611298 -0.010651 -0.791329
vn 0.614017 0.035983 -0.788472
vn -0.614017 0.035983 -0.788472
vn -0.611325 -0.051740 -0.789686
vn -0.611325 -0.051740 0.789686
vn -0.614517 -0.078247 0.785014
vn -0.614517 -0.078247 -0.785014
vn 0.614517 -0.078247 -0.785014
vn 0.611325 -0.051740 -0.789686
vn 0.611325 -0.051740 0.789686
vn 0.614517 -0.078247 0.785014
vn -0.577348 -0.577354 0.577348
vn -0.000000 -0.707105 0.707108
vn -0.000000 -0.000000 1.000000
vn -0.707107 0.000000 0.707107
vn 0.577348 -0.577354 0.577348
vn 0.707107 -0.000000 0.707107
vn 0.577348 0.577354 0.577348
vn -0.000000 0.707105 0.707108
vn -0.577348 0.577354 0.577348
vn 0.000000 1.000000 -0.000000
vn -0.707108 0.707105 -0.000000
vn 0.707108 0.707105 0.000000
vn 0.577348 0.577354 -0.577348
vn -0.000000 0.707105 -0.707108
vn -0.577348 0.577354 -0.577348
vn -0.000000 -0.000000 -1.000000
vn -0.707107 -0.000000 -0.707107
vn 0.707107 -0.000000 -0.707107
vn 0.577348 -0.577354 -0.577348
vn -0.000000 -0.707105 -0.707108
vn -0.577348 -0.577354 -0.577348
vn 0.000000 -1.000000 0.000000
vn -0.707108 -0.707105 0.000000
vn 0.707108 -0.707105 -0.000000
vn 1.000000 -0.000000 0.000000
vn -1.000000 -0.000000 0.000000
vn -0.149359 -0.749857 0.644520
vn 0.149359 -0.749857 0.644520
vn 0.290556 -0.018097 0.956687
vn -0.290556 -0.018097 0.956687
vn -0.152857 0.752443 0.640675
vn 0.152857 0.752443 0.640675
vn 0.152857 0.752443 -0.640675
vn -0.152857 0.752443 -0.640675
vn -0.290556 -0.018097 -0.956687
vn 0.290556 -0.018097 -0.956687
vn 0.149359 -0.749857 -0.644520
vn -0.149359 -0.749857 -0.644520
vn -0.287296 0.011596 -0.957772
vn -0.287296 0.011596 0.957772
vn 0.287296 0.011596 -0.957772
vn 0.287296 0.011596 0.957772
vn 0.106135 -0.266727 0.957910
vn 0.090519 0.234096 0.967990
vn -0.094992 0.238722 0.966431
vn -0.106379 -0.275111 0.955509
vn -0.094992 0.238722 -0.966431
vn -0.106379 -0.275111 -0.955509
vn 0.090519 0.234096 -0.967990
vn 0.106135 -0.266727 -0.957910
vn 0.093513 -0.279029 0.955719
vn 0.090430 0.261585 0.960935
vn -0.093025 0.277574 0.956190
vn -0.092206 -0.266721 0.959353
vn -0.093025 0.277574 -0.956190
vn -0.092206 -0.266721 -0.959353
vn 0.090430 0.261585 -0.960935
vn 0.093513 -0.279029 -0.955719
vn 0.102307 -0.255314 0.961430
vn 0.099094 0.258459 0.960926
vn -0.100200 0.250056 0.963033
vn -0.101283 -0.264168 0.959144
vn -0.100200 0.250056 -0.963033
vn -0.101283 -0.264168 -0.959144
vn 0.099094 0.258459 -0.960926
vn 0.102307 -0.255314 -0.961430
vn 0.096652 -0.265740 0.959188
vn 0.097291 0.303072 0.947988
vn -0.098845 0.271769 0.957273
vn -0.093207 -0.290348 0.952371
vn -0.098845 0.271769 -0.957273
vn -0.093207 -0.290348 -0.952371
vn 0.097291 0.303072 -0.947988
vn 0.096652 -0.265740 -0.959187
s 1
f 1/1/1 2/2/2 16/3/3 13/4/4
f 14/5/5 15/6/6 8/7/7 7/8/8
f 2/2/2 8/7/7 15/6/6 16/3/3
f 7/9/8 1/1/1 13/4/4 14/10/5
f 10/11/9 9/12/10 3/13/11 5/14/12
f 5/15/12 6/16/13 11/17/14 10/18/9
f 12/19/15 11/17/14 6/16/13 4/20/16
f 9/12/10 12/19/15 4/20/16 3/13/11
f 14/10/5 13/4/4 9/12/10 10/11/9
f 10/18/9 11/17/14 15/6/6 14/5/5
f 16/3/3 15/6/6 11/17/14 12/19/15
f 13/4/4 16/3/3 12/19/15 9/12/10
s 3
f 17/21/17 35/22/18 37/23/19 36/24/20
f 35/22/18 18/25/21 25/26/22 37/23/19
f 37/23/19 25/26/22 20/27/23 26/28/24
f 36/24/20 37/23/19 26/28/24 19/29/25
f 19/29/25 26/28/24 38/30/26 27/31/27
f 26/28/24 20/27/23 28/32/28 38/30/26
f 38/30/26 28/32/28 22/33/29 29/34/30
f 27/31/27 38/30/26 29/34/30 21/35/31
f 21/35/31 29/34/30 39/36/32 30/37/33
f 29/34/30 22/33/29 31/38/34 39/36/32
f 39/36/32 31/38/34 24/39/35 32/40/36
f 30/37/33 39/36/32 32/40/36 23/41/37
f 23/41/37 32/40/36 40/42/38 33/43/39
f 32/40/36 24/39/35 34/44/40 40/42/38
f 40/42/38 34/44/40 18/25/21 35/22/18
f 33/43/39 40/42/38 35/22/18 17/21/17
f 18/25/21 34/44/40 41/45/41 25/26/22
f 34/44/40 24/39/35 31/38/34 41/45/41
f 41/45/41 31/38/34 22/33/29 28/32/28
f 25/26/22 41/45/41 28/32/28 20/27/23
f 23/41/37 33/43/39 42/46/42 30/37/33
f 33/43/39 17/21/17 36/24/20 42/47/42
f 42/48/42 36/24/20 19/29/25 27/31/27
f 30/37/33 42/49/42 27/31/27 21/35/31
s 4
f 43/50/43 44/51/44 58/52/45 55/53/46
f 45/54/47 46/55/48 48/56/49 47/57/50
f 56/58/51 57/59/52 50/60/53 49/61/54
f 49/62/54 50/63/53 44/51/44 43/50/43
f 44/64/44 50/65/53 57/66/52 58/52/45
f 49/67/54 43/68/43 55/53/46 56/58/51
f 52/69/55 51/70/56 45/71/47 47/72/50
f 47/57/50 48/56/49 53/73/57 52/69/55
f 54/74/58 53/75/57 48/76/49 46/77/48
f 51/70/56 54/74/58 46/78/48 45/79/47
f 56/58/51 55/53/46 51/70/56 52/69/55
f 52/69/55 53/73/57 57/59/52 56/58/51
f 58/52/45 57/66/52 53/75/57 54/74/58
f 55/53/46 58/52/45 54/74/58 51/70/56
s 7
f 59/80/59 60/81/60 62/82/61 61/83/62
f 61/84/62 62/85/61 64/86/63 63/87/64
f 63/87/64 64/86/63 66/88/65 65/89/66
f 65/90/66 66/91/65 60/81/60 59/80/59
f 60/92/60 66/88/65 64/86/63 62/93/61
f 65/89/66 59/80/59 61/83/62 63/87/64
s 8
f 67/94/67 68/95/68 70/96/69 69/97/70
f 69/97/70 70/96/69 72/98/71 71/99/72
f 71/100/72 72/101/71 74/102/73 73/103/74
f 73/103/74 74/102/73 68/104/68 67/105/67
f 68/95/68 74/102/73 72/101/71 70/96/69
f 73/106/74 67/94/67 69/97/70 71/107/72
s 9
f 75/108/75 76/109/76 78/110/77 77/111/78
f 77/112/78 78/113/77 80/114/79 79/115/80
f 79/115/80 80/114/79 82/116/81 81/117/82
f 81/118/82 82/119/81 76/109/76 75/108/75
f 76/120/76 82/116/81 80/114/79 78/121/77
f 81/117/82 75/108/75 77/111/78 79/115/80
s 10
f 83/122/83 84/123/84 86/124/85 85/125/86
f 85/125/86 86/124/85 88/126/87 87/127/88
f 87/128/88 88/129/87 90/130/89 89/131/90
f 89/131/90 90/130/89 84/132/84 83/133/83
f 84/123/84 90/130/89 88/129/87 86/124/85
f 89/134/90 83/122/83 85/125/86 87/135/88
